<?xml version="1.0" encoding="UTF-8" standalone="no"?>
<!DOCTYPE svg PUBLIC "-//W3C//DTD SVG 1.1//EN"
 "http://www.w3.org/Graphics/SVG/1.1/DTD/svg11.dtd">
<!-- Generated by graphviz version 2.42.3 (20191010.1750)
 -->
<!-- Title: snakemake_dag Pages: 1 -->
<svg width="1457pt" height="404pt"
 viewBox="0.00 0.00 1457.00 404.00" xmlns="http://www.w3.org/2000/svg" xmlns:xlink="http://www.w3.org/1999/xlink">
<g id="graph0" class="graph" transform="scale(1 1) rotate(0) translate(4 400)">
<title>snakemake_dag</title>
<polygon fill="white" stroke="transparent" points="-4,4 -4,-400 1453,-400 1453,4 -4,4"/>
<!-- 0 -->
<g id="node1" class="node">
<title>0</title>
<path fill="none" stroke="#d8d356" stroke-width="2" d="M683.5,-36C683.5,-36 653.5,-36 653.5,-36 647.5,-36 641.5,-30 641.5,-24 641.5,-24 641.5,-12 641.5,-12 641.5,-6 647.5,0 653.5,0 653.5,0 683.5,0 683.5,0 689.5,0 695.5,-6 695.5,-12 695.5,-12 695.5,-24 695.5,-24 695.5,-30 689.5,-36 683.5,-36"/>
<text text-anchor="middle" x="668.5" y="-15.5" font-family="sans" font-size="10.00">all</text>
</g>
<!-- 1 -->
<g id="node2" class="node">
<title>1</title>
<path fill="none" stroke="#567bd8" stroke-width="2" d="M683.5,-108C683.5,-108 653.5,-108 653.5,-108 647.5,-108 641.5,-102 641.5,-96 641.5,-96 641.5,-84 641.5,-84 641.5,-78 647.5,-72 653.5,-72 653.5,-72 683.5,-72 683.5,-72 689.5,-72 695.5,-78 695.5,-84 695.5,-84 695.5,-96 695.5,-96 695.5,-102 689.5,-108 683.5,-108"/>
<text text-anchor="middle" x="668.5" y="-87.5" font-family="sans" font-size="10.00">AUC</text>
</g>
<!-- 1&#45;&gt;0 -->
<g id="edge1" class="edge">
<title>1&#45;&gt;0</title>
<path fill="none" stroke="grey" stroke-width="2" d="M668.5,-71.7C668.5,-63.98 668.5,-54.71 668.5,-46.11"/>
<polygon fill="grey" stroke="grey" stroke-width="2" points="672,-46.1 668.5,-36.1 665,-46.1 672,-46.1"/>
</g>
<!-- 2 -->
<g id="node3" class="node">
<title>2</title>
<path fill="none" stroke="#d8ac56" stroke-width="2" d="M71,-180C71,-180 12,-180 12,-180 6,-180 0,-174 0,-168 0,-168 0,-156 0,-156 0,-150 6,-144 12,-144 12,-144 71,-144 71,-144 77,-144 83,-150 83,-156 83,-156 83,-168 83,-168 83,-174 77,-180 71,-180"/>
<text text-anchor="middle" x="41.5" y="-159.5" font-family="sans" font-size="10.00">DeepG4_scan</text>
</g>
<!-- 2&#45;&gt;1 -->
<g id="edge3" class="edge">
<title>2&#45;&gt;1</title>
<path fill="none" stroke="grey" stroke-width="2" d="M83.27,-148.3C89.67,-146.66 96.23,-145.16 102.5,-144 299.72,-107.59 540.46,-95.59 631.37,-92.19"/>
<polygon fill="grey" stroke="grey" stroke-width="2" points="631.59,-95.68 641.46,-91.82 631.34,-88.69 631.59,-95.68"/>
</g>
<!-- 3 -->
<g id="node4" class="node">
<title>3</title>
<path fill="none" stroke="#56b1d8" stroke-width="2" d="M155.5,-180C155.5,-180 123.5,-180 123.5,-180 117.5,-180 111.5,-174 111.5,-168 111.5,-168 111.5,-156 111.5,-156 111.5,-150 117.5,-144 123.5,-144 123.5,-144 155.5,-144 155.5,-144 161.5,-144 167.5,-150 167.5,-156 167.5,-156 167.5,-168 167.5,-168 167.5,-174 161.5,-180 155.5,-180"/>
<text text-anchor="middle" x="139.5" y="-159.5" font-family="sans" font-size="10.00">DeepG4</text>
</g>
<!-- 3&#45;&gt;1 -->
<g id="edge2" class="edge">
<title>3&#45;&gt;1</title>
<path fill="none" stroke="grey" stroke-width="2" d="M167.51,-149.64C173.68,-147.49 180.25,-145.45 186.5,-144 349.34,-106.17 549.58,-95.14 631.21,-92.09"/>
<polygon fill="grey" stroke="grey" stroke-width="2" points="631.61,-95.58 641.48,-91.73 631.36,-88.59 631.61,-95.58"/>
</g>
<!-- 4 -->
<g id="node5" class="node">
<title>4</title>
<path fill="none" stroke="#61d856" stroke-width="2" d="M918,-180C918,-180 813,-180 813,-180 807,-180 801,-174 801,-168 801,-168 801,-156 801,-156 801,-150 807,-144 813,-144 813,-144 918,-144 918,-144 924,-144 930,-150 930,-156 930,-156 930,-168 930,-168 930,-174 924,-180 918,-180"/>
<text text-anchor="middle" x="865.5" y="-159.5" font-family="sans" font-size="10.00">G4detector_tsv_format</text>
</g>
<!-- 4&#45;&gt;1 -->
<g id="edge13" class="edge">
<title>4&#45;&gt;1</title>
<path fill="none" stroke="grey" stroke-width="2" d="M817.56,-143.97C783.03,-131.7 737.13,-115.38 705.43,-104.12"/>
<polygon fill="grey" stroke="grey" stroke-width="2" points="706.26,-100.7 695.67,-100.65 703.92,-107.3 706.26,-100.7"/>
</g>
<!-- 5 -->
<g id="node6" class="node">
<title>5</title>
<path fill="none" stroke="#56d892" stroke-width="2" d="M1115,-180C1115,-180 960,-180 960,-180 954,-180 948,-174 948,-168 948,-168 948,-156 948,-156 948,-150 954,-144 960,-144 960,-144 1115,-144 1115,-144 1121,-144 1127,-150 1127,-156 1127,-156 1127,-168 1127,-168 1127,-174 1121,-180 1115,-180"/>
<text text-anchor="middle" x="1037.5" y="-159.5" font-family="sans" font-size="10.00">G4detector_retrained_tsv_format</text>
</g>
<!-- 5&#45;&gt;1 -->
<g id="edge5" class="edge">
<title>5&#45;&gt;1</title>
<path fill="none" stroke="grey" stroke-width="2" d="M947.7,-143.97C869.98,-129.22 761.5,-108.64 705.39,-98"/>
<polygon fill="grey" stroke="grey" stroke-width="2" points="706.01,-94.55 695.54,-96.13 704.71,-101.43 706.01,-94.55"/>
</g>
<!-- 6 -->
<g id="node7" class="node">
<title>6</title>
<path fill="none" stroke="#566bd8" stroke-width="2" d="M732.5,-180C732.5,-180 694.5,-180 694.5,-180 688.5,-180 682.5,-174 682.5,-168 682.5,-168 682.5,-156 682.5,-156 682.5,-150 688.5,-144 694.5,-144 694.5,-144 732.5,-144 732.5,-144 738.5,-144 744.5,-150 744.5,-156 744.5,-156 744.5,-168 744.5,-168 744.5,-174 738.5,-180 732.5,-180"/>
<text text-anchor="middle" x="713.5" y="-159.5" font-family="sans" font-size="10.00">penguinn</text>
</g>
<!-- 6&#45;&gt;1 -->
<g id="edge11" class="edge">
<title>6&#45;&gt;1</title>
<path fill="none" stroke="grey" stroke-width="2" d="M702.38,-143.7C697.14,-135.56 690.8,-125.69 685.02,-116.7"/>
<polygon fill="grey" stroke="grey" stroke-width="2" points="687.85,-114.62 679.5,-108.1 681.96,-118.41 687.85,-114.62"/>
</g>
<!-- 7 -->
<g id="node8" class="node">
<title>7</title>
<path fill="none" stroke="#56d8c9" stroke-width="2" d="M869,-252C869,-252 782,-252 782,-252 776,-252 770,-246 770,-240 770,-240 770,-228 770,-228 770,-222 776,-216 782,-216 782,-216 869,-216 869,-216 875,-216 881,-222 881,-228 881,-228 881,-240 881,-240 881,-246 875,-252 869,-252"/>
<text text-anchor="middle" x="825.5" y="-231.5" font-family="sans" font-size="10.00">penguinn_retrained</text>
</g>
<!-- 7&#45;&gt;1 -->
<g id="edge10" class="edge">
<title>7&#45;&gt;1</title>
<path fill="none" stroke="grey" stroke-width="2" d="M814.22,-215.84C801.15,-196.79 778.21,-165.85 753.5,-144 738.8,-131 720.54,-119.16 704.72,-109.99"/>
<polygon fill="grey" stroke="grey" stroke-width="2" points="706.16,-106.78 695.73,-104.91 702.71,-112.87 706.16,-106.78"/>
</g>
<!-- 8 -->
<g id="node9" class="node">
<title>8</title>
<path fill="none" stroke="#56d8a9" stroke-width="2" d="M652.5,-180C652.5,-180 594.5,-180 594.5,-180 588.5,-180 582.5,-174 582.5,-168 582.5,-168 582.5,-156 582.5,-156 582.5,-150 588.5,-144 594.5,-144 594.5,-144 652.5,-144 652.5,-144 658.5,-144 664.5,-150 664.5,-156 664.5,-156 664.5,-168 664.5,-168 664.5,-174 658.5,-180 652.5,-180"/>
<text text-anchor="middle" x="623.5" y="-159.5" font-family="sans" font-size="10.00">qparse_tsv_R</text>
</g>
<!-- 8&#45;&gt;1 -->
<g id="edge8" class="edge">
<title>8&#45;&gt;1</title>
<path fill="none" stroke="grey" stroke-width="2" d="M634.62,-143.7C639.86,-135.56 646.2,-125.69 651.98,-116.7"/>
<polygon fill="grey" stroke="grey" stroke-width="2" points="655.04,-118.41 657.5,-108.1 649.15,-114.62 655.04,-118.41"/>
</g>
<!-- 9 -->
<g id="node10" class="node">
<title>9</title>
<path fill="none" stroke="#70d856" stroke-width="2" d="M180.5,-324C180.5,-324 116.5,-324 116.5,-324 110.5,-324 104.5,-318 104.5,-312 104.5,-312 104.5,-300 104.5,-300 104.5,-294 110.5,-288 116.5,-288 116.5,-288 180.5,-288 180.5,-288 186.5,-288 192.5,-294 192.5,-300 192.5,-300 192.5,-312 192.5,-312 192.5,-318 186.5,-324 180.5,-324"/>
<text text-anchor="middle" x="148.5" y="-303.5" font-family="sans" font-size="10.00">quadron_score</text>
</g>
<!-- 9&#45;&gt;1 -->
<g id="edge12" class="edge">
<title>9&#45;&gt;1</title>
<path fill="none" stroke="grey" stroke-width="2" d="M158.75,-287.81C180,-253.86 232.48,-178.5 298.5,-144 356.01,-113.95 549.46,-98.51 631.37,-93.19"/>
<polygon fill="grey" stroke="grey" stroke-width="2" points="631.72,-96.67 641.47,-92.54 631.27,-89.68 631.72,-96.67"/>
</g>
<!-- 10 -->
<g id="node11" class="node">
<title>10</title>
<path fill="none" stroke="#56a2d8" stroke-width="2" d="M1297.5,-252C1297.5,-252 1215.5,-252 1215.5,-252 1209.5,-252 1203.5,-246 1203.5,-240 1203.5,-240 1203.5,-228 1203.5,-228 1203.5,-222 1209.5,-216 1215.5,-216 1215.5,-216 1297.5,-216 1297.5,-216 1303.5,-216 1309.5,-222 1309.5,-228 1309.5,-228 1309.5,-240 1309.5,-240 1309.5,-246 1303.5,-252 1297.5,-252"/>
<text text-anchor="middle" x="1256.5" y="-231.5" font-family="sans" font-size="10.00">quadron_retrained</text>
</g>
<!-- 10&#45;&gt;1 -->
<g id="edge6" class="edge">
<title>10&#45;&gt;1</title>
<path fill="none" stroke="grey" stroke-width="2" d="M1227.21,-215.77C1211.19,-205.93 1191.24,-192.98 1174.5,-180 1155.86,-165.54 1156.95,-153.82 1135.5,-144 1058.98,-108.98 802.59,-95.99 705.86,-92.26"/>
<polygon fill="grey" stroke="grey" stroke-width="2" points="705.8,-88.75 695.67,-91.88 705.54,-95.75 705.8,-88.75"/>
</g>
<!-- 11 -->
<g id="node12" class="node">
<title>11</title>
<path fill="none" stroke="#d89c56" stroke-width="2" d="M260.5,-324C260.5,-324 222.5,-324 222.5,-324 216.5,-324 210.5,-318 210.5,-312 210.5,-312 210.5,-300 210.5,-300 210.5,-294 216.5,-288 222.5,-288 222.5,-288 260.5,-288 260.5,-288 266.5,-288 272.5,-294 272.5,-300 272.5,-300 272.5,-312 272.5,-312 272.5,-318 266.5,-324 260.5,-324"/>
<text text-anchor="middle" x="241.5" y="-303.5" font-family="sans" font-size="10.00">pqsfinder</text>
</g>
<!-- 11&#45;&gt;1 -->
<g id="edge4" class="edge">
<title>11&#45;&gt;1</title>
<path fill="none" stroke="grey" stroke-width="2" d="M240.59,-287.85C240.49,-268.23 243.3,-236.22 260.5,-216 356.07,-103.68 549.7,-90.46 631.11,-90.13"/>
<polygon fill="grey" stroke="grey" stroke-width="2" points="631.37,-93.63 641.38,-90.16 631.39,-86.63 631.37,-93.63"/>
</g>
<!-- 12 -->
<g id="node13" class="node">
<title>12</title>
<path fill="none" stroke="#56d85b" stroke-width="2" d="M387.5,-252C387.5,-252 281.5,-252 281.5,-252 275.5,-252 269.5,-246 269.5,-240 269.5,-240 269.5,-228 269.5,-228 269.5,-222 275.5,-216 281.5,-216 281.5,-216 387.5,-216 387.5,-216 393.5,-216 399.5,-222 399.5,-228 399.5,-228 399.5,-240 399.5,-240 399.5,-246 393.5,-252 387.5,-252"/>
<text text-anchor="middle" x="334.5" y="-231.5" font-family="sans" font-size="10.00">quadparser_tsv_format</text>
</g>
<!-- 12&#45;&gt;1 -->
<g id="edge15" class="edge">
<title>12&#45;&gt;1</title>
<path fill="none" stroke="grey" stroke-width="2" d="M370.34,-215.95C409.43,-197.54 473.96,-167.67 530.5,-144 564.59,-129.73 604,-114.74 631.96,-104.36"/>
<polygon fill="grey" stroke="grey" stroke-width="2" points="633.17,-107.64 641.34,-100.89 630.75,-101.07 633.17,-107.64"/>
</g>
<!-- 13 -->
<g id="node14" class="node">
<title>13</title>
<path fill="none" stroke="#d86656" stroke-width="2" d="M535,-252C535,-252 430,-252 430,-252 424,-252 418,-246 418,-240 418,-240 418,-228 418,-228 418,-222 424,-216 430,-216 430,-216 535,-216 535,-216 541,-216 547,-222 547,-228 547,-228 547,-240 547,-240 547,-246 541,-252 535,-252"/>
<text text-anchor="middle" x="482.5" y="-231.5" font-family="sans" font-size="10.00">G4CatchAll_tsv_format</text>
</g>
<!-- 13&#45;&gt;1 -->
<g id="edge7" class="edge">
<title>13&#45;&gt;1</title>
<path fill="none" stroke="grey" stroke-width="2" d="M497.44,-215.87C514.57,-196.86 544.11,-165.95 573.5,-144 591.67,-130.43 613.69,-117.93 631.96,-108.48"/>
<polygon fill="grey" stroke="grey" stroke-width="2" points="633.79,-111.47 641.13,-103.83 630.63,-105.23 633.79,-111.47"/>
</g>
<!-- 14 -->
<g id="node15" class="node">
<title>14</title>
<path fill="none" stroke="#56d0d8" stroke-width="2" d="M1293.5,-180C1293.5,-180 1195.5,-180 1195.5,-180 1189.5,-180 1183.5,-174 1183.5,-168 1183.5,-168 1183.5,-156 1183.5,-156 1183.5,-150 1189.5,-144 1195.5,-144 1195.5,-144 1293.5,-144 1293.5,-144 1299.5,-144 1305.5,-150 1305.5,-156 1305.5,-156 1305.5,-168 1305.5,-168 1305.5,-174 1299.5,-180 1293.5,-180"/>
<text text-anchor="middle" x="1244.5" y="-159.5" font-family="sans" font-size="10.00">G4Hunter_tsv_format</text>
</g>
<!-- 14&#45;&gt;1 -->
<g id="edge14" class="edge">
<title>14&#45;&gt;1</title>
<path fill="none" stroke="grey" stroke-width="2" d="M1183.22,-146.49C1178.59,-145.59 1173.98,-144.74 1169.5,-144 997.17,-115.46 788.82,-99.19 705.52,-93.42"/>
<polygon fill="grey" stroke="grey" stroke-width="2" points="705.75,-89.93 695.53,-92.74 705.27,-96.91 705.75,-89.93"/>
</g>
<!-- 15 -->
<g id="node16" class="node">
<title>15</title>
<path fill="none" stroke="#d8c356" stroke-width="2" d="M1437,-180C1437,-180 1336,-180 1336,-180 1330,-180 1324,-174 1324,-168 1324,-168 1324,-156 1324,-156 1324,-150 1330,-144 1336,-144 1336,-144 1437,-144 1437,-144 1443,-144 1449,-150 1449,-156 1449,-156 1449,-168 1449,-168 1449,-174 1443,-180 1437,-180"/>
<text text-anchor="middle" x="1386.5" y="-159.5" font-family="sans" font-size="10.00">G4HunterRF_retrained</text>
</g>
<!-- 15&#45;&gt;1 -->
<g id="edge9" class="edge">
<title>15&#45;&gt;1</title>
<path fill="none" stroke="grey" stroke-width="2" d="M1323.78,-145.61C1320.65,-145.02 1317.54,-144.48 1314.5,-144 1085.01,-107.7 805.47,-95.48 705.91,-92.11"/>
<polygon fill="grey" stroke="grey" stroke-width="2" points="705.86,-88.6 695.75,-91.77 705.63,-95.6 705.86,-88.6"/>
</g>
<!-- 16 -->
<g id="node17" class="node">
<title>16</title>
<path fill="none" stroke="#56d882" stroke-width="2" d="M509.5,-396C509.5,-396 455.5,-396 455.5,-396 449.5,-396 443.5,-390 443.5,-384 443.5,-384 443.5,-372 443.5,-372 443.5,-366 449.5,-360 455.5,-360 455.5,-360 509.5,-360 509.5,-360 515.5,-360 521.5,-366 521.5,-372 521.5,-372 521.5,-384 521.5,-384 521.5,-390 515.5,-396 509.5,-396"/>
<text text-anchor="middle" x="482.5" y="-375.5" font-family="sans" font-size="10.00">merge_fasta</text>
</g>
<!-- 16&#45;&gt;2 -->
<g id="edge16" class="edge">
<title>16&#45;&gt;2</title>
<path fill="none" stroke="grey" stroke-width="2" d="M443.44,-377.37C352.51,-377.4 130.43,-372.38 77.5,-324 40.33,-290.03 37.23,-226.78 38.94,-190.49"/>
<polygon fill="grey" stroke="grey" stroke-width="2" points="42.46,-190.36 39.59,-180.16 35.47,-189.92 42.46,-190.36"/>
</g>
<!-- 16&#45;&gt;3 -->
<g id="edge17" class="edge">
<title>16&#45;&gt;3</title>
<path fill="none" stroke="grey" stroke-width="2" d="M443.46,-377.82C354.39,-378.76 140.41,-375.49 95.5,-324 61.78,-285.35 95.72,-223.18 119.88,-188.49"/>
<polygon fill="grey" stroke="grey" stroke-width="2" points="122.78,-190.46 125.77,-180.3 117.09,-186.38 122.78,-190.46"/>
</g>
<!-- 16&#45;&gt;8 -->
<g id="edge24" class="edge">
<title>16&#45;&gt;8</title>
<path fill="none" stroke="grey" stroke-width="2" d="M521.52,-368.6C545.74,-361.19 575.09,-347.74 590.5,-324 616.65,-283.71 581.74,-262.31 594.5,-216 597.05,-206.74 601.49,-197.33 606.13,-189.05"/>
<polygon fill="grey" stroke="grey" stroke-width="2" points="609.26,-190.65 611.38,-180.26 603.25,-187.06 609.26,-190.65"/>
</g>
<!-- 16&#45;&gt;9 -->
<g id="edge26" class="edge">
<title>16&#45;&gt;9</title>
<path fill="none" stroke="grey" stroke-width="2" d="M443.07,-371.15C390.32,-362.97 293.77,-346.79 202.57,-324.11"/>
<polygon fill="grey" stroke="grey" stroke-width="2" points="203.18,-320.65 192.63,-321.61 201.47,-327.44 203.18,-320.65"/>
</g>
<!-- 16&#45;&gt;11 -->
<g id="edge28" class="edge">
<title>16&#45;&gt;11</title>
<path fill="none" stroke="grey" stroke-width="2" d="M443.5,-367.64C403.71,-357.82 340.33,-341.4 286.5,-324 285.11,-323.55 283.7,-323.08 282.28,-322.6"/>
<polygon fill="grey" stroke="grey" stroke-width="2" points="283.43,-319.3 272.83,-319.28 281.11,-325.9 283.43,-319.3"/>
</g>
<!-- 16&#45;&gt;12 -->
<g id="edge29" class="edge">
<title>16&#45;&gt;12</title>
<path fill="none" stroke="grey" stroke-width="2" d="M443.45,-376.53C404.87,-373.73 347.66,-362.76 319.5,-324 306.4,-305.97 312.49,-280.51 320.48,-261.43"/>
<polygon fill="grey" stroke="grey" stroke-width="2" points="323.77,-262.66 324.75,-252.11 317.4,-259.75 323.77,-262.66"/>
</g>
<!-- 16&#45;&gt;13 -->
<g id="edge32" class="edge">
<title>16&#45;&gt;13</title>
<path fill="none" stroke="grey" stroke-width="2" d="M482.5,-359.87C482.5,-335.67 482.5,-291.21 482.5,-262.39"/>
<polygon fill="grey" stroke="grey" stroke-width="2" points="486,-262.19 482.5,-252.19 479,-262.19 486,-262.19"/>
</g>
<!-- 17 -->
<g id="node18" class="node">
<title>17</title>
<path fill="none" stroke="#d85656" stroke-width="2" d="M938,-324C938,-324 881,-324 881,-324 875,-324 869,-318 869,-312 869,-312 869,-300 869,-300 869,-294 875,-288 881,-288 881,-288 938,-288 938,-288 944,-288 950,-294 950,-300 950,-300 950,-312 950,-312 950,-318 944,-324 938,-324"/>
<text text-anchor="middle" x="909.5" y="-303.5" font-family="sans" font-size="10.00">subseq_fasta</text>
</g>
<!-- 16&#45;&gt;17 -->
<g id="edge35" class="edge">
<title>16&#45;&gt;17</title>
<path fill="none" stroke="grey" stroke-width="2" d="M521.53,-370.6C599.08,-357.89 772.52,-329.46 858.78,-315.31"/>
<polygon fill="grey" stroke="grey" stroke-width="2" points="859.55,-318.74 868.85,-313.66 858.42,-311.83 859.55,-318.74"/>
</g>
<!-- 21 -->
<g id="node22" class="node">
<title>21</title>
<path fill="none" stroke="#ced856" stroke-width="2" d="M1176.5,-324C1176.5,-324 1098.5,-324 1098.5,-324 1092.5,-324 1086.5,-318 1086.5,-312 1086.5,-312 1086.5,-300 1086.5,-300 1086.5,-294 1092.5,-288 1098.5,-288 1098.5,-288 1176.5,-288 1176.5,-288 1182.5,-288 1188.5,-294 1188.5,-300 1188.5,-300 1188.5,-312 1188.5,-312 1188.5,-318 1182.5,-324 1176.5,-324"/>
<text text-anchor="middle" x="1137.5" y="-303.5" font-family="sans" font-size="10.00">quadron_features</text>
</g>
<!-- 16&#45;&gt;21 -->
<g id="edge39" class="edge">
<title>16&#45;&gt;21</title>
<path fill="none" stroke="grey" stroke-width="2" d="M521.51,-372.83C631.29,-361.1 943.51,-327.73 1076.4,-313.53"/>
<polygon fill="grey" stroke="grey" stroke-width="2" points="1076.85,-317 1086.42,-312.46 1076.1,-310.04 1076.85,-317"/>
</g>
<!-- 22 -->
<g id="node23" class="node">
<title>22</title>
<path fill="none" stroke="#56d873" stroke-width="2" d="M442,-324C442,-324 341,-324 341,-324 335,-324 329,-318 329,-312 329,-312 329,-300 329,-300 329,-294 335,-288 341,-288 341,-288 442,-288 442,-288 448,-288 454,-294 454,-300 454,-300 454,-312 454,-312 454,-318 448,-324 442,-324"/>
<text text-anchor="middle" x="391.5" y="-303.5" font-family="sans" font-size="10.00">quadparser_command</text>
</g>
<!-- 16&#45;&gt;22 -->
<g id="edge40" class="edge">
<title>16&#45;&gt;22</title>
<path fill="none" stroke="grey" stroke-width="2" d="M460.01,-359.7C448.54,-350.88 434.44,-340.03 422.02,-330.47"/>
<polygon fill="grey" stroke="grey" stroke-width="2" points="423.8,-327.43 413.74,-324.1 419.53,-332.98 423.8,-327.43"/>
</g>
<!-- 23 -->
<g id="node24" class="node">
<title>23</title>
<path fill="none" stroke="#80d856" stroke-width="2" d="M570,-324C570,-324 523,-324 523,-324 517,-324 511,-318 511,-312 511,-312 511,-300 511,-300 511,-294 517,-288 523,-288 523,-288 570,-288 570,-288 576,-288 582,-294 582,-300 582,-300 582,-312 582,-312 582,-318 576,-324 570,-324"/>
<text text-anchor="middle" x="546.5" y="-303.5" font-family="sans" font-size="10.00">G4CatchAll</text>
</g>
<!-- 16&#45;&gt;23 -->
<g id="edge41" class="edge">
<title>16&#45;&gt;23</title>
<path fill="none" stroke="grey" stroke-width="2" d="M498.32,-359.7C506.07,-351.22 515.54,-340.86 524.02,-331.58"/>
<polygon fill="grey" stroke="grey" stroke-width="2" points="526.7,-333.85 530.86,-324.1 521.53,-329.12 526.7,-333.85"/>
</g>
<!-- 24 -->
<g id="node25" class="node">
<title>24</title>
<path fill="none" stroke="#568ad8" stroke-width="2" d="M1379,-252C1379,-252 1340,-252 1340,-252 1334,-252 1328,-246 1328,-240 1328,-240 1328,-228 1328,-228 1328,-222 1334,-216 1340,-216 1340,-216 1379,-216 1379,-216 1385,-216 1391,-222 1391,-228 1391,-228 1391,-240 1391,-240 1391,-246 1385,-252 1379,-252"/>
<text text-anchor="middle" x="1359.5" y="-231.5" font-family="sans" font-size="10.00">G4Hunter</text>
</g>
<!-- 16&#45;&gt;24 -->
<g id="edge42" class="edge">
<title>16&#45;&gt;24</title>
<path fill="none" stroke="grey" stroke-width="2" d="M521.77,-376.28C652.09,-373.56 1069.21,-362.03 1197.5,-324 1246.15,-309.58 1296.51,-279.01 1327.91,-257.75"/>
<polygon fill="grey" stroke="grey" stroke-width="2" points="1329.98,-260.57 1336.24,-252.02 1326.02,-254.8 1329.98,-260.57"/>
</g>
<!-- 25 -->
<g id="node26" class="node">
<title>25</title>
<path fill="none" stroke="#b6d856" stroke-width="2" d="M680.5,-324C680.5,-324 650.5,-324 650.5,-324 644.5,-324 638.5,-318 638.5,-312 638.5,-312 638.5,-300 638.5,-300 638.5,-294 644.5,-288 650.5,-288 650.5,-288 680.5,-288 680.5,-288 686.5,-288 692.5,-294 692.5,-300 692.5,-300 692.5,-312 692.5,-312 692.5,-318 686.5,-324 680.5,-324"/>
<text text-anchor="middle" x="665.5" y="-303.5" font-family="sans" font-size="10.00">qparse</text>
</g>
<!-- 16&#45;&gt;25 -->
<g id="edge43" class="edge">
<title>16&#45;&gt;25</title>
<path fill="none" stroke="grey" stroke-width="2" d="M521.52,-362.86C550.13,-352.4 589.86,-337.64 624.5,-324 625.89,-323.45 627.3,-322.89 628.73,-322.32"/>
<polygon fill="grey" stroke="grey" stroke-width="2" points="630.26,-325.48 638.21,-318.48 627.63,-318.99 630.26,-325.48"/>
</g>
<!-- 17&#45;&gt;4 -->
<g id="edge18" class="edge">
<title>17&#45;&gt;4</title>
<path fill="none" stroke="grey" stroke-width="2" d="M906.74,-287.99C903.56,-269.87 897.7,-240.48 889.5,-216 886.55,-207.19 882.62,-197.86 878.8,-189.54"/>
<polygon fill="grey" stroke="grey" stroke-width="2" points="881.87,-187.84 874.42,-180.31 875.54,-190.84 881.87,-187.84"/>
</g>
<!-- 17&#45;&gt;5 -->
<g id="edge21" class="edge">
<title>17&#45;&gt;5</title>
<path fill="none" stroke="grey" stroke-width="2" d="M950.01,-294.61C973.1,-286.65 1000.69,-273.32 1017.5,-252 1031.26,-234.56 1035.94,-209.52 1037.37,-190.43"/>
<polygon fill="grey" stroke="grey" stroke-width="2" points="1040.87,-190.42 1037.87,-180.26 1033.88,-190.08 1040.87,-190.42"/>
</g>
<!-- 17&#45;&gt;6 -->
<g id="edge22" class="edge">
<title>17&#45;&gt;6</title>
<path fill="none" stroke="grey" stroke-width="2" d="M868.73,-298.86C836.23,-292.15 791.23,-278.59 760.5,-252 741.48,-235.54 729,-209.46 721.7,-189.78"/>
<polygon fill="grey" stroke="grey" stroke-width="2" points="724.95,-188.45 718.36,-180.16 718.34,-190.75 724.95,-188.45"/>
</g>
<!-- 17&#45;&gt;7 -->
<g id="edge23" class="edge">
<title>17&#45;&gt;7</title>
<path fill="none" stroke="grey" stroke-width="2" d="M888.74,-287.7C878.26,-278.97 865.39,-268.24 854,-258.75"/>
<polygon fill="grey" stroke="grey" stroke-width="2" points="855.95,-255.82 846.03,-252.1 851.47,-261.19 855.95,-255.82"/>
</g>
<!-- 18 -->
<g id="node19" class="node">
<title>18</title>
<path fill="none" stroke="#97d856" stroke-width="2" d="M997,-252C997,-252 950,-252 950,-252 944,-252 938,-246 938,-240 938,-240 938,-228 938,-228 938,-222 944,-216 950,-216 950,-216 997,-216 997,-216 1003,-216 1009,-222 1009,-228 1009,-228 1009,-240 1009,-240 1009,-246 1003,-252 997,-252"/>
<text text-anchor="middle" x="973.5" y="-231.5" font-family="sans" font-size="10.00">G4detector</text>
</g>
<!-- 17&#45;&gt;18 -->
<g id="edge36" class="edge">
<title>17&#45;&gt;18</title>
<path fill="none" stroke="grey" stroke-width="2" d="M925.32,-287.7C933.07,-279.22 942.54,-268.86 951.02,-259.58"/>
<polygon fill="grey" stroke="grey" stroke-width="2" points="953.7,-261.85 957.86,-252.1 948.53,-257.12 953.7,-261.85"/>
</g>
<!-- 19 -->
<g id="node20" class="node">
<title>19</title>
<path fill="none" stroke="#56c1d8" stroke-width="2" d="M1173.5,-252C1173.5,-252 1077.5,-252 1077.5,-252 1071.5,-252 1065.5,-246 1065.5,-240 1065.5,-240 1065.5,-228 1065.5,-228 1065.5,-222 1071.5,-216 1077.5,-216 1077.5,-216 1173.5,-216 1173.5,-216 1179.5,-216 1185.5,-222 1185.5,-228 1185.5,-228 1185.5,-240 1185.5,-240 1185.5,-246 1179.5,-252 1173.5,-252"/>
<text text-anchor="middle" x="1125.5" y="-231.5" font-family="sans" font-size="10.00">G4detector_retrained</text>
</g>
<!-- 17&#45;&gt;19 -->
<g id="edge37" class="edge">
<title>17&#45;&gt;19</title>
<path fill="none" stroke="grey" stroke-width="2" d="M950.13,-291.83C981.99,-281.51 1026.87,-266.96 1063.25,-255.17"/>
<polygon fill="grey" stroke="grey" stroke-width="2" points="1064.36,-258.49 1072.79,-252.08 1062.2,-251.84 1064.36,-258.49"/>
</g>
<!-- 18&#45;&gt;4 -->
<g id="edge19" class="edge">
<title>18&#45;&gt;4</title>
<path fill="none" stroke="grey" stroke-width="2" d="M947.08,-215.88C933.09,-206.81 915.72,-195.55 900.61,-185.76"/>
<polygon fill="grey" stroke="grey" stroke-width="2" points="902.32,-182.69 892.02,-180.19 898.51,-188.57 902.32,-182.69"/>
</g>
<!-- 19&#45;&gt;5 -->
<g id="edge20" class="edge">
<title>19&#45;&gt;5</title>
<path fill="none" stroke="grey" stroke-width="2" d="M1103.75,-215.7C1092.66,-206.88 1079.03,-196.03 1067.01,-186.47"/>
<polygon fill="grey" stroke="grey" stroke-width="2" points="1069.01,-183.59 1059,-180.1 1064.65,-189.07 1069.01,-183.59"/>
</g>
<!-- 20 -->
<g id="node21" class="node">
<title>20</title>
<path fill="none" stroke="#56d8b9" stroke-width="2" d="M701,-252C701,-252 616,-252 616,-252 610,-252 604,-246 604,-240 604,-240 604,-228 604,-228 604,-222 610,-216 616,-216 616,-216 701,-216 701,-216 707,-216 713,-222 713,-228 713,-228 713,-240 713,-240 713,-246 707,-252 701,-252"/>
<text text-anchor="middle" x="658.5" y="-231.5" font-family="sans" font-size="10.00">qparse_tsv_python</text>
</g>
<!-- 20&#45;&gt;8 -->
<g id="edge25" class="edge">
<title>20&#45;&gt;8</title>
<path fill="none" stroke="grey" stroke-width="2" d="M649.85,-215.7C645.86,-207.73 641.05,-198.1 636.63,-189.26"/>
<polygon fill="grey" stroke="grey" stroke-width="2" points="639.65,-187.48 632.05,-180.1 633.39,-190.61 639.65,-187.48"/>
</g>
<!-- 21&#45;&gt;10 -->
<g id="edge27" class="edge">
<title>21&#45;&gt;10</title>
<path fill="none" stroke="grey" stroke-width="2" d="M1166.61,-287.88C1182.17,-278.72 1201.52,-267.34 1218.28,-257.48"/>
<polygon fill="grey" stroke="grey" stroke-width="2" points="1220.43,-260.28 1227.28,-252.19 1216.88,-254.24 1220.43,-260.28"/>
</g>
<!-- 22&#45;&gt;12 -->
<g id="edge30" class="edge">
<title>22&#45;&gt;12</title>
<path fill="none" stroke="grey" stroke-width="2" d="M377.41,-287.7C370.58,-279.3 362.24,-269.07 354.74,-259.86"/>
<polygon fill="grey" stroke="grey" stroke-width="2" points="357.46,-257.65 348.43,-252.1 352.03,-262.07 357.46,-257.65"/>
</g>
<!-- 23&#45;&gt;13 -->
<g id="edge31" class="edge">
<title>23&#45;&gt;13</title>
<path fill="none" stroke="grey" stroke-width="2" d="M530.68,-287.7C522.93,-279.22 513.46,-268.86 504.98,-259.58"/>
<polygon fill="grey" stroke="grey" stroke-width="2" points="507.47,-257.12 498.14,-252.1 502.3,-261.85 507.47,-257.12"/>
</g>
<!-- 24&#45;&gt;14 -->
<g id="edge33" class="edge">
<title>24&#45;&gt;14</title>
<path fill="none" stroke="grey" stroke-width="2" d="M1331.37,-215.88C1316.33,-206.72 1297.63,-195.34 1281.44,-185.48"/>
<polygon fill="grey" stroke="grey" stroke-width="2" points="1283.1,-182.4 1272.74,-180.19 1279.46,-188.38 1283.1,-182.4"/>
</g>
<!-- 24&#45;&gt;15 -->
<g id="edge34" class="edge">
<title>24&#45;&gt;15</title>
<path fill="none" stroke="grey" stroke-width="2" d="M1366.17,-215.7C1369.21,-207.81 1372.88,-198.3 1376.26,-189.55"/>
<polygon fill="grey" stroke="grey" stroke-width="2" points="1379.57,-190.69 1379.9,-180.1 1373.04,-188.17 1379.57,-190.69"/>
</g>
<!-- 25&#45;&gt;20 -->
<g id="edge38" class="edge">
<title>25&#45;&gt;20</title>
<path fill="none" stroke="grey" stroke-width="2" d="M663.77,-287.7C663,-279.98 662.07,-270.71 661.21,-262.11"/>
<polygon fill="grey" stroke="grey" stroke-width="2" points="664.69,-261.71 660.21,-252.1 657.72,-262.4 664.69,-261.71"/>
</g>
</g>
</svg>
