<?xml version="1.0" encoding="UTF-8" standalone="no"?>
<!DOCTYPE svg PUBLIC "-//W3C//DTD SVG 1.1//EN"
 "http://www.w3.org/Graphics/SVG/1.1/DTD/svg11.dtd">
<!-- Generated by graphviz version 2.42.3 (20191010.1750)
 -->
<!-- Title: snakemake_dag Pages: 1 -->
<svg width="823pt" height="404pt"
 viewBox="0.00 0.00 822.50 404.00" xmlns="http://www.w3.org/2000/svg" xmlns:xlink="http://www.w3.org/1999/xlink">
<g id="graph0" class="graph" transform="scale(1 1) rotate(0) translate(4 400)">
<title>snakemake_dag</title>
<polygon fill="white" stroke="transparent" points="-4,4 -4,-400 818.5,-400 818.5,4 -4,4"/>
<!-- 0 -->
<g id="node1" class="node">
<title>0</title>
<path fill="none" stroke="#568ad8" stroke-width="2" d="M442.5,-36C442.5,-36 412.5,-36 412.5,-36 406.5,-36 400.5,-30 400.5,-24 400.5,-24 400.5,-12 400.5,-12 400.5,-6 406.5,0 412.5,0 412.5,0 442.5,0 442.5,0 448.5,0 454.5,-6 454.5,-12 454.5,-12 454.5,-24 454.5,-24 454.5,-30 448.5,-36 442.5,-36"/>
<text text-anchor="middle" x="427.5" y="-15.5" font-family="sans" font-size="10.00">all</text>
</g>
<!-- 1 -->
<g id="node2" class="node">
<title>1</title>
<path fill="none" stroke="#d88d56" stroke-width="2" d="M414.5,-108C414.5,-108 354.5,-108 354.5,-108 348.5,-108 342.5,-102 342.5,-96 342.5,-96 342.5,-84 342.5,-84 342.5,-78 348.5,-72 354.5,-72 354.5,-72 414.5,-72 414.5,-72 420.5,-72 426.5,-78 426.5,-84 426.5,-84 426.5,-96 426.5,-96 426.5,-102 420.5,-108 414.5,-108"/>
<text text-anchor="middle" x="384.5" y="-87.5" font-family="sans" font-size="10.00">other_metrics</text>
</g>
<!-- 1&#45;&gt;0 -->
<g id="edge2" class="edge">
<title>1&#45;&gt;0</title>
<path fill="none" stroke="grey" stroke-width="2" d="M395.13,-71.7C400.13,-63.56 406.19,-53.69 411.71,-44.7"/>
<polygon fill="grey" stroke="grey" stroke-width="2" points="414.74,-46.46 416.99,-36.1 408.78,-42.79 414.74,-46.46"/>
</g>
<!-- 2 -->
<g id="node3" class="node">
<title>2</title>
<path fill="none" stroke="#d85656" stroke-width="2" d="M619,-180C619,-180 566,-180 566,-180 560,-180 554,-174 554,-168 554,-168 554,-156 554,-156 554,-150 560,-144 566,-144 566,-144 619,-144 619,-144 625,-144 631,-150 631,-156 631,-156 631,-168 631,-168 631,-174 625,-180 619,-180"/>
<text text-anchor="middle" x="592.5" y="-159.5" font-family="sans" font-size="10.00">DeepG4OH4</text>
</g>
<!-- 2&#45;&gt;1 -->
<g id="edge3" class="edge">
<title>2&#45;&gt;1</title>
<path fill="none" stroke="grey" stroke-width="2" d="M553.8,-146.9C551,-145.91 548.21,-144.93 545.5,-144 509.23,-131.47 468.14,-117.96 436.55,-107.71"/>
<polygon fill="grey" stroke="grey" stroke-width="2" points="437.24,-104.26 426.65,-104.5 435.08,-110.91 437.24,-104.26"/>
</g>
<!-- 12 -->
<g id="node13" class="node">
<title>12</title>
<path fill="none" stroke="#566bd8" stroke-width="2" d="M490.5,-108C490.5,-108 460.5,-108 460.5,-108 454.5,-108 448.5,-102 448.5,-96 448.5,-96 448.5,-84 448.5,-84 448.5,-78 454.5,-72 460.5,-72 460.5,-72 490.5,-72 490.5,-72 496.5,-72 502.5,-78 502.5,-84 502.5,-84 502.5,-96 502.5,-96 502.5,-102 496.5,-108 490.5,-108"/>
<text text-anchor="middle" x="475.5" y="-87.5" font-family="sans" font-size="10.00">AUC</text>
</g>
<!-- 2&#45;&gt;12 -->
<g id="edge19" class="edge">
<title>2&#45;&gt;12</title>
<path fill="none" stroke="grey" stroke-width="2" d="M563.88,-143.88C548.12,-134.45 528.42,-122.66 511.61,-112.61"/>
<polygon fill="grey" stroke="grey" stroke-width="2" points="513,-109.36 502.62,-107.23 509.4,-115.36 513,-109.36"/>
</g>
<!-- 3 -->
<g id="node4" class="node">
<title>3</title>
<path fill="none" stroke="#56a2d8" stroke-width="2" d="M649.5,-396C649.5,-396 585.5,-396 585.5,-396 579.5,-396 573.5,-390 573.5,-384 573.5,-384 573.5,-372 573.5,-372 573.5,-366 579.5,-360 585.5,-360 585.5,-360 649.5,-360 649.5,-360 655.5,-360 661.5,-366 661.5,-372 661.5,-372 661.5,-384 661.5,-384 661.5,-390 655.5,-396 649.5,-396"/>
<text text-anchor="middle" x="617.5" y="-375.5" font-family="sans" font-size="10.00">fastafrom_bed</text>
</g>
<!-- 3&#45;&gt;2 -->
<g id="edge9" class="edge">
<title>3&#45;&gt;2</title>
<path fill="none" stroke="grey" stroke-width="2" d="M609.34,-359.76C604.95,-349.6 599.95,-336.35 597.5,-324 588.3,-277.67 589.07,-222.39 590.65,-190.14"/>
<polygon fill="grey" stroke="grey" stroke-width="2" points="594.15,-190.31 591.2,-180.13 587.16,-189.92 594.15,-190.31"/>
</g>
<!-- 6 -->
<g id="node7" class="node">
<title>6</title>
<path fill="none" stroke="#61d856" stroke-width="2" d="M366,-324C366,-324 309,-324 309,-324 303,-324 297,-318 297,-312 297,-312 297,-300 297,-300 297,-294 303,-288 309,-288 309,-288 366,-288 366,-288 372,-288 378,-294 378,-300 378,-300 378,-312 378,-312 378,-318 372,-324 366,-324"/>
<text text-anchor="middle" x="337.5" y="-303.5" font-family="sans" font-size="10.00">subseq_fasta</text>
</g>
<!-- 3&#45;&gt;6 -->
<g id="edge12" class="edge">
<title>3&#45;&gt;6</title>
<path fill="none" stroke="grey" stroke-width="2" d="M573.44,-365.99C523.09,-353.4 440.84,-332.84 387.96,-319.62"/>
<polygon fill="grey" stroke="grey" stroke-width="2" points="388.67,-316.18 378.12,-317.15 386.97,-322.98 388.67,-316.18"/>
</g>
<!-- 13 -->
<g id="node14" class="node">
<title>13</title>
<path fill="none" stroke="#d8d356" stroke-width="2" d="M802.5,-324C802.5,-324 738.5,-324 738.5,-324 732.5,-324 726.5,-318 726.5,-312 726.5,-312 726.5,-300 726.5,-300 726.5,-294 732.5,-288 738.5,-288 738.5,-288 802.5,-288 802.5,-288 808.5,-288 814.5,-294 814.5,-300 814.5,-300 814.5,-312 814.5,-312 814.5,-318 808.5,-324 802.5,-324"/>
<text text-anchor="middle" x="770.5" y="-303.5" font-family="sans" font-size="10.00">quadron_score</text>
</g>
<!-- 3&#45;&gt;13 -->
<g id="edge26" class="edge">
<title>3&#45;&gt;13</title>
<path fill="none" stroke="grey" stroke-width="2" d="M654.93,-359.88C675.75,-350.35 701.85,-338.41 723.98,-328.28"/>
<polygon fill="grey" stroke="grey" stroke-width="2" points="725.56,-331.41 733.19,-324.07 722.64,-325.05 725.56,-331.41"/>
</g>
<!-- 15 -->
<g id="node16" class="node">
<title>15</title>
<path fill="none" stroke="#b6d856" stroke-width="2" d="M696.5,-324C696.5,-324 618.5,-324 618.5,-324 612.5,-324 606.5,-318 606.5,-312 606.5,-312 606.5,-300 606.5,-300 606.5,-294 612.5,-288 618.5,-288 618.5,-288 696.5,-288 696.5,-288 702.5,-288 708.5,-294 708.5,-300 708.5,-300 708.5,-312 708.5,-312 708.5,-318 702.5,-324 696.5,-324"/>
<text text-anchor="middle" x="657.5" y="-303.5" font-family="sans" font-size="10.00">quadron_features</text>
</g>
<!-- 3&#45;&gt;15 -->
<g id="edge28" class="edge">
<title>3&#45;&gt;15</title>
<path fill="none" stroke="grey" stroke-width="2" d="M627.39,-359.7C631.99,-351.64 637.56,-341.89 642.65,-332.98"/>
<polygon fill="grey" stroke="grey" stroke-width="2" points="645.8,-334.52 647.73,-324.1 639.73,-331.05 645.8,-334.52"/>
</g>
<!-- 4 -->
<g id="node5" class="node">
<title>4</title>
<path fill="none" stroke="#d8ac56" stroke-width="2" d="M538,-252C538,-252 473,-252 473,-252 467,-252 461,-246 461,-240 461,-240 461,-228 461,-228 461,-222 467,-216 473,-216 473,-216 538,-216 538,-216 544,-216 550,-222 550,-228 550,-228 550,-240 550,-240 550,-246 544,-252 538,-252"/>
<text text-anchor="middle" x="505.5" y="-231.5" font-family="sans" font-size="10.00">atac_from_bed</text>
</g>
<!-- 4&#45;&gt;2 -->
<g id="edge8" class="edge">
<title>4&#45;&gt;2</title>
<path fill="none" stroke="grey" stroke-width="2" d="M527.01,-215.7C537.96,-206.88 551.45,-196.03 563.32,-186.47"/>
<polygon fill="grey" stroke="grey" stroke-width="2" points="565.64,-189.1 571.24,-180.1 561.26,-183.65 565.64,-189.1"/>
</g>
<!-- 5 -->
<g id="node6" class="node">
<title>5</title>
<path fill="none" stroke="#56b1d8" stroke-width="2" d="M314,-180C314,-180 209,-180 209,-180 203,-180 197,-174 197,-168 197,-168 197,-156 197,-156 197,-150 203,-144 209,-144 209,-144 314,-144 314,-144 320,-144 326,-150 326,-156 326,-156 326,-168 326,-168 326,-174 320,-180 314,-180"/>
<text text-anchor="middle" x="261.5" y="-159.5" font-family="sans" font-size="10.00">G4detector_tsv_format</text>
</g>
<!-- 5&#45;&gt;1 -->
<g id="edge4" class="edge">
<title>5&#45;&gt;1</title>
<path fill="none" stroke="grey" stroke-width="2" d="M291.59,-143.88C307.82,-134.64 328.04,-123.13 345.47,-113.21"/>
<polygon fill="grey" stroke="grey" stroke-width="2" points="347.34,-116.18 354.3,-108.19 343.87,-110.09 347.34,-116.18"/>
</g>
<!-- 5&#45;&gt;12 -->
<g id="edge20" class="edge">
<title>5&#45;&gt;12</title>
<path fill="none" stroke="grey" stroke-width="2" d="M323.22,-143.93C356.73,-134.23 398.7,-121.38 435.5,-108 436.53,-107.63 437.57,-107.24 438.62,-106.84"/>
<polygon fill="grey" stroke="grey" stroke-width="2" points="440.1,-110.02 448.11,-103.09 437.52,-103.51 440.1,-110.02"/>
</g>
<!-- 6&#45;&gt;5 -->
<g id="edge10" class="edge">
<title>6&#45;&gt;5</title>
<path fill="none" stroke="grey" stroke-width="2" d="M336.88,-287.85C335.54,-269.09 331.36,-238.67 318.5,-216 312.25,-204.98 302.93,-194.93 293.63,-186.6"/>
<polygon fill="grey" stroke="grey" stroke-width="2" points="295.78,-183.84 285.89,-180.04 291.26,-189.18 295.78,-183.84"/>
</g>
<!-- 7 -->
<g id="node8" class="node">
<title>7</title>
<path fill="none" stroke="#80d856" stroke-width="2" d="M297,-252C297,-252 250,-252 250,-252 244,-252 238,-246 238,-240 238,-240 238,-228 238,-228 238,-222 244,-216 250,-216 250,-216 297,-216 297,-216 303,-216 309,-222 309,-228 309,-228 309,-240 309,-240 309,-246 303,-252 297,-252"/>
<text text-anchor="middle" x="273.5" y="-231.5" font-family="sans" font-size="10.00">G4detector</text>
</g>
<!-- 6&#45;&gt;7 -->
<g id="edge13" class="edge">
<title>6&#45;&gt;7</title>
<path fill="none" stroke="grey" stroke-width="2" d="M321.68,-287.7C313.93,-279.22 304.46,-268.86 295.98,-259.58"/>
<polygon fill="grey" stroke="grey" stroke-width="2" points="298.47,-257.12 289.14,-252.1 293.3,-261.85 298.47,-257.12"/>
</g>
<!-- 8 -->
<g id="node9" class="node">
<title>8</title>
<path fill="none" stroke="#d86656" stroke-width="2" d="M167,-180C167,-180 12,-180 12,-180 6,-180 0,-174 0,-168 0,-168 0,-156 0,-156 0,-150 6,-144 12,-144 12,-144 167,-144 167,-144 173,-144 179,-150 179,-156 179,-156 179,-168 179,-168 179,-174 173,-180 167,-180"/>
<text text-anchor="middle" x="89.5" y="-159.5" font-family="sans" font-size="10.00">G4detector_retrained_tsv_format</text>
</g>
<!-- 6&#45;&gt;8 -->
<g id="edge15" class="edge">
<title>6&#45;&gt;8</title>
<path fill="none" stroke="grey" stroke-width="2" d="M296.97,-302.28C233.73,-297.1 116.18,-283.41 90.5,-252 76.57,-234.96 77.83,-209.34 81.69,-189.96"/>
<polygon fill="grey" stroke="grey" stroke-width="2" points="85.1,-190.73 83.95,-180.19 78.28,-189.15 85.1,-190.73"/>
</g>
<!-- 9 -->
<g id="node10" class="node">
<title>9</title>
<path fill="none" stroke="#56d8b9" stroke-width="2" d="M207.5,-252C207.5,-252 111.5,-252 111.5,-252 105.5,-252 99.5,-246 99.5,-240 99.5,-240 99.5,-228 99.5,-228 99.5,-222 105.5,-216 111.5,-216 111.5,-216 207.5,-216 207.5,-216 213.5,-216 219.5,-222 219.5,-228 219.5,-228 219.5,-240 219.5,-240 219.5,-246 213.5,-252 207.5,-252"/>
<text text-anchor="middle" x="159.5" y="-231.5" font-family="sans" font-size="10.00">G4detector_retrained</text>
</g>
<!-- 6&#45;&gt;9 -->
<g id="edge16" class="edge">
<title>6&#45;&gt;9</title>
<path fill="none" stroke="grey" stroke-width="2" d="M296.66,-288.94C271.71,-279.13 239.52,-266.47 212.6,-255.88"/>
<polygon fill="grey" stroke="grey" stroke-width="2" points="213.53,-252.49 202.94,-252.08 210.97,-259 213.53,-252.49"/>
</g>
<!-- 10 -->
<g id="node11" class="node">
<title>10</title>
<path fill="none" stroke="#d8c356" stroke-width="2" d="M394.5,-180C394.5,-180 356.5,-180 356.5,-180 350.5,-180 344.5,-174 344.5,-168 344.5,-168 344.5,-156 344.5,-156 344.5,-150 350.5,-144 356.5,-144 356.5,-144 394.5,-144 394.5,-144 400.5,-144 406.5,-150 406.5,-156 406.5,-156 406.5,-168 406.5,-168 406.5,-174 400.5,-180 394.5,-180"/>
<text text-anchor="middle" x="375.5" y="-159.5" font-family="sans" font-size="10.00">penguinn</text>
</g>
<!-- 6&#45;&gt;10 -->
<g id="edge17" class="edge">
<title>6&#45;&gt;10</title>
<path fill="none" stroke="grey" stroke-width="2" d="M342.08,-287.87C348.59,-263.56 360.56,-218.82 368.27,-190.01"/>
<polygon fill="grey" stroke="grey" stroke-width="2" points="371.7,-190.75 370.9,-180.19 364.93,-188.94 371.7,-190.75"/>
</g>
<!-- 11 -->
<g id="node12" class="node">
<title>11</title>
<path fill="none" stroke="#56d892" stroke-width="2" d="M524,-180C524,-180 437,-180 437,-180 431,-180 425,-174 425,-168 425,-168 425,-156 425,-156 425,-150 431,-144 437,-144 437,-144 524,-144 524,-144 530,-144 536,-150 536,-156 536,-156 536,-168 536,-168 536,-174 530,-180 524,-180"/>
<text text-anchor="middle" x="480.5" y="-159.5" font-family="sans" font-size="10.00">penguinn_retrained</text>
</g>
<!-- 6&#45;&gt;11 -->
<g id="edge18" class="edge">
<title>6&#45;&gt;11</title>
<path fill="none" stroke="grey" stroke-width="2" d="M354.75,-287.87C379.98,-262.82 427.07,-216.05 455.92,-187.41"/>
<polygon fill="grey" stroke="grey" stroke-width="2" points="458.56,-189.72 463.19,-180.19 453.63,-184.75 458.56,-189.72"/>
</g>
<!-- 7&#45;&gt;5 -->
<g id="edge11" class="edge">
<title>7&#45;&gt;5</title>
<path fill="none" stroke="grey" stroke-width="2" d="M270.53,-215.7C269.21,-207.98 267.62,-198.71 266.15,-190.11"/>
<polygon fill="grey" stroke="grey" stroke-width="2" points="269.57,-189.37 264.43,-180.1 262.67,-190.55 269.57,-189.37"/>
</g>
<!-- 8&#45;&gt;1 -->
<g id="edge6" class="edge">
<title>8&#45;&gt;1</title>
<path fill="none" stroke="grey" stroke-width="2" d="M161.29,-143.97C214.15,-131.42 284.81,-114.65 332.35,-103.37"/>
<polygon fill="grey" stroke="grey" stroke-width="2" points="333.21,-106.77 342.13,-101.05 331.59,-99.96 333.21,-106.77"/>
</g>
<!-- 8&#45;&gt;12 -->
<g id="edge23" class="edge">
<title>8&#45;&gt;12</title>
<path fill="none" stroke="grey" stroke-width="2" d="M179.06,-145.52C182.25,-145 185.4,-144.49 188.5,-144 298.07,-126.61 328.68,-137.94 435.5,-108 436.55,-107.7 437.62,-107.39 438.68,-107.05"/>
<polygon fill="grey" stroke="grey" stroke-width="2" points="440.03,-110.29 448.29,-103.66 437.7,-103.69 440.03,-110.29"/>
</g>
<!-- 9&#45;&gt;8 -->
<g id="edge14" class="edge">
<title>9&#45;&gt;8</title>
<path fill="none" stroke="grey" stroke-width="2" d="M142.2,-215.7C133.64,-207.14 123.16,-196.66 113.8,-187.3"/>
<polygon fill="grey" stroke="grey" stroke-width="2" points="116.15,-184.7 106.6,-180.1 111.2,-189.65 116.15,-184.7"/>
</g>
<!-- 10&#45;&gt;1 -->
<g id="edge7" class="edge">
<title>10&#45;&gt;1</title>
<path fill="none" stroke="grey" stroke-width="2" d="M377.72,-143.7C378.72,-135.98 379.91,-126.71 381.01,-118.11"/>
<polygon fill="grey" stroke="grey" stroke-width="2" points="384.5,-118.47 382.3,-108.1 377.55,-117.58 384.5,-118.47"/>
</g>
<!-- 10&#45;&gt;12 -->
<g id="edge25" class="edge">
<title>10&#45;&gt;12</title>
<path fill="none" stroke="grey" stroke-width="2" d="M399.96,-143.88C412.8,-134.89 428.7,-123.76 442.59,-114.03"/>
<polygon fill="grey" stroke="grey" stroke-width="2" points="444.76,-116.79 450.94,-108.19 440.74,-111.06 444.76,-116.79"/>
</g>
<!-- 11&#45;&gt;1 -->
<g id="edge5" class="edge">
<title>11&#45;&gt;1</title>
<path fill="none" stroke="grey" stroke-width="2" d="M456.77,-143.7C444.56,-134.8 429.51,-123.82 416.32,-114.2"/>
<polygon fill="grey" stroke="grey" stroke-width="2" points="418.1,-111.17 407.96,-108.1 413.98,-116.82 418.1,-111.17"/>
</g>
<!-- 11&#45;&gt;12 -->
<g id="edge21" class="edge">
<title>11&#45;&gt;12</title>
<path fill="none" stroke="grey" stroke-width="2" d="M479.26,-143.7C478.71,-135.98 478.05,-126.71 477.44,-118.11"/>
<polygon fill="grey" stroke="grey" stroke-width="2" points="480.93,-117.83 476.72,-108.1 473.94,-118.33 480.93,-117.83"/>
</g>
<!-- 12&#45;&gt;0 -->
<g id="edge1" class="edge">
<title>12&#45;&gt;0</title>
<path fill="none" stroke="grey" stroke-width="2" d="M463.63,-71.7C458,-63.47 451.15,-53.48 444.93,-44.42"/>
<polygon fill="grey" stroke="grey" stroke-width="2" points="447.77,-42.37 439.23,-36.1 442,-46.33 447.77,-42.37"/>
</g>
<!-- 13&#45;&gt;12 -->
<g id="edge22" class="edge">
<title>13&#45;&gt;12</title>
<path fill="none" stroke="grey" stroke-width="2" d="M764.28,-287.8C751.15,-254.18 717.25,-179.89 662.5,-144 616.26,-113.69 552.6,-100.47 512.77,-94.87"/>
<polygon fill="grey" stroke="grey" stroke-width="2" points="513.06,-91.38 502.69,-93.55 512.15,-98.32 513.06,-91.38"/>
</g>
<!-- 14 -->
<g id="node15" class="node">
<title>14</title>
<path fill="none" stroke="#a7d856" stroke-width="2" d="M700.5,-252C700.5,-252 618.5,-252 618.5,-252 612.5,-252 606.5,-246 606.5,-240 606.5,-240 606.5,-228 606.5,-228 606.5,-222 612.5,-216 618.5,-216 618.5,-216 700.5,-216 700.5,-216 706.5,-216 712.5,-222 712.5,-228 712.5,-228 712.5,-240 712.5,-240 712.5,-246 706.5,-252 700.5,-252"/>
<text text-anchor="middle" x="659.5" y="-231.5" font-family="sans" font-size="10.00">quadron_retrained</text>
</g>
<!-- 14&#45;&gt;12 -->
<g id="edge24" class="edge">
<title>14&#45;&gt;12</title>
<path fill="none" stroke="grey" stroke-width="2" d="M660.62,-215.66C660.92,-195.86 658.3,-163.69 640.5,-144 607.85,-107.89 550.57,-96.26 512.83,-92.58"/>
<polygon fill="grey" stroke="grey" stroke-width="2" points="512.99,-89.08 502.74,-91.74 512.41,-96.06 512.99,-89.08"/>
</g>
<!-- 15&#45;&gt;14 -->
<g id="edge27" class="edge">
<title>15&#45;&gt;14</title>
<path fill="none" stroke="grey" stroke-width="2" d="M657.99,-287.7C658.21,-279.98 658.48,-270.71 658.73,-262.11"/>
<polygon fill="grey" stroke="grey" stroke-width="2" points="662.22,-262.2 659.01,-252.1 655.23,-262 662.22,-262.2"/>
</g>
</g>
</svg>
