<?xml version="1.0" encoding="UTF-8" standalone="no"?>
<!DOCTYPE svg PUBLIC "-//W3C//DTD SVG 1.1//EN"
 "http://www.w3.org/Graphics/SVG/1.1/DTD/svg11.dtd">
<!-- Generated by graphviz version 2.42.3 (20191010.1750)
 -->
<!-- Title: snakemake_dag Pages: 1 -->
<svg width="1552pt" height="404pt"
 viewBox="0.00 0.00 1552.00 404.00" xmlns="http://www.w3.org/2000/svg" xmlns:xlink="http://www.w3.org/1999/xlink">
<g id="graph0" class="graph" transform="scale(1 1) rotate(0) translate(4 400)">
<title>snakemake_dag</title>
<polygon fill="white" stroke="transparent" points="-4,4 -4,-400 1548,-400 1548,4 -4,4"/>
<!-- 0 -->
<g id="node1" class="node">
<title>0</title>
<path fill="none" stroke="#56c1d8" stroke-width="2" d="M572.5,-36C572.5,-36 542.5,-36 542.5,-36 536.5,-36 530.5,-30 530.5,-24 530.5,-24 530.5,-12 530.5,-12 530.5,-6 536.5,0 542.5,0 542.5,0 572.5,0 572.5,0 578.5,0 584.5,-6 584.5,-12 584.5,-12 584.5,-24 584.5,-24 584.5,-30 578.5,-36 572.5,-36"/>
<text text-anchor="middle" x="557.5" y="-15.5" font-family="sans" font-size="10.00">all</text>
</g>
<!-- 1 -->
<g id="node2" class="node">
<title>1</title>
<path fill="none" stroke="#d86656" stroke-width="2" d="M404.5,-108C404.5,-108 344.5,-108 344.5,-108 338.5,-108 332.5,-102 332.5,-96 332.5,-96 332.5,-84 332.5,-84 332.5,-78 338.5,-72 344.5,-72 344.5,-72 404.5,-72 404.5,-72 410.5,-72 416.5,-78 416.5,-84 416.5,-84 416.5,-96 416.5,-96 416.5,-102 410.5,-108 404.5,-108"/>
<text text-anchor="middle" x="374.5" y="-87.5" font-family="sans" font-size="10.00">other_metrics</text>
</g>
<!-- 1&#45;&gt;0 -->
<g id="edge2" class="edge">
<title>1&#45;&gt;0</title>
<path fill="none" stroke="grey" stroke-width="2" d="M416.94,-72.76C448.34,-60.75 490.69,-44.56 520.67,-33.09"/>
<polygon fill="grey" stroke="grey" stroke-width="2" points="522.24,-36.24 530.33,-29.39 519.73,-29.7 522.24,-36.24"/>
</g>
<!-- 2 -->
<g id="node3" class="node">
<title>2</title>
<path fill="none" stroke="#56d85b" stroke-width="2" d="M65,-180C65,-180 12,-180 12,-180 6,-180 0,-174 0,-168 0,-168 0,-156 0,-156 0,-150 6,-144 12,-144 12,-144 65,-144 65,-144 71,-144 77,-150 77,-156 77,-156 77,-168 77,-168 77,-174 71,-180 65,-180"/>
<text text-anchor="middle" x="38.5" y="-159.5" font-family="sans" font-size="10.00">DeepG4OH4</text>
</g>
<!-- 2&#45;&gt;1 -->
<g id="edge4" class="edge">
<title>2&#45;&gt;1</title>
<path fill="none" stroke="grey" stroke-width="2" d="M77.11,-146.73C80.27,-145.75 83.43,-144.82 86.5,-144 167.58,-122.33 263.86,-106.57 322.01,-98.1"/>
<polygon fill="grey" stroke="grey" stroke-width="2" points="322.66,-101.55 332.06,-96.66 321.67,-94.62 322.66,-101.55"/>
</g>
<!-- 12 -->
<g id="node13" class="node">
<title>12</title>
<path fill="none" stroke="#56a2d8" stroke-width="2" d="M841.5,-108C841.5,-108 811.5,-108 811.5,-108 805.5,-108 799.5,-102 799.5,-96 799.5,-96 799.5,-84 799.5,-84 799.5,-78 805.5,-72 811.5,-72 811.5,-72 841.5,-72 841.5,-72 847.5,-72 853.5,-78 853.5,-84 853.5,-84 853.5,-96 853.5,-96 853.5,-102 847.5,-108 841.5,-108"/>
<text text-anchor="middle" x="826.5" y="-87.5" font-family="sans" font-size="10.00">AUC</text>
</g>
<!-- 2&#45;&gt;12 -->
<g id="edge22" class="edge">
<title>2&#45;&gt;12</title>
<path fill="none" stroke="grey" stroke-width="2" d="M77.02,-146.36C80.2,-145.45 83.38,-144.65 86.5,-144 223.08,-115.47 658.52,-97.27 789.12,-92.35"/>
<polygon fill="grey" stroke="grey" stroke-width="2" points="789.54,-95.84 799.4,-91.97 789.28,-88.84 789.54,-95.84"/>
</g>
<!-- 3 -->
<g id="node4" class="node">
<title>3</title>
<path fill="none" stroke="#d88d56" stroke-width="2" d="M1022.5,-396C1022.5,-396 958.5,-396 958.5,-396 952.5,-396 946.5,-390 946.5,-384 946.5,-384 946.5,-372 946.5,-372 946.5,-366 952.5,-360 958.5,-360 958.5,-360 1022.5,-360 1022.5,-360 1028.5,-360 1034.5,-366 1034.5,-372 1034.5,-372 1034.5,-384 1034.5,-384 1034.5,-390 1028.5,-396 1022.5,-396"/>
<text text-anchor="middle" x="990.5" y="-375.5" font-family="sans" font-size="10.00">fastafrom_bed</text>
</g>
<!-- 3&#45;&gt;2 -->
<g id="edge9" class="edge">
<title>3&#45;&gt;2</title>
<path fill="none" stroke="grey" stroke-width="2" d="M946.23,-374.19C769.53,-362.58 121.25,-315.87 57.5,-252 41.59,-236.05 37.5,-210.26 37.01,-190.53"/>
<polygon fill="grey" stroke="grey" stroke-width="2" points="40.51,-190.32 37.06,-180.3 33.51,-190.29 40.51,-190.32"/>
</g>
<!-- 6 -->
<g id="node7" class="node">
<title>6</title>
<path fill="none" stroke="#97d856" stroke-width="2" d="M469,-324C469,-324 412,-324 412,-324 406,-324 400,-318 400,-312 400,-312 400,-300 400,-300 400,-294 406,-288 412,-288 412,-288 469,-288 469,-288 475,-288 481,-294 481,-300 481,-300 481,-312 481,-312 481,-318 475,-324 469,-324"/>
<text text-anchor="middle" x="440.5" y="-303.5" font-family="sans" font-size="10.00">subseq_fasta</text>
</g>
<!-- 3&#45;&gt;6 -->
<g id="edge12" class="edge">
<title>3&#45;&gt;6</title>
<path fill="none" stroke="grey" stroke-width="2" d="M946.42,-371.39C845.52,-358.55 598.26,-327.08 491.24,-313.46"/>
<polygon fill="grey" stroke="grey" stroke-width="2" points="491.39,-309.95 481.03,-312.16 490.51,-316.89 491.39,-309.95"/>
</g>
<!-- 13 -->
<g id="node14" class="node">
<title>13</title>
<path fill="none" stroke="#d8c356" stroke-width="2" d="M990.5,-180C990.5,-180 932.5,-180 932.5,-180 926.5,-180 920.5,-174 920.5,-168 920.5,-168 920.5,-156 920.5,-156 920.5,-150 926.5,-144 932.5,-144 932.5,-144 990.5,-144 990.5,-144 996.5,-144 1002.5,-150 1002.5,-156 1002.5,-156 1002.5,-168 1002.5,-168 1002.5,-174 996.5,-180 990.5,-180"/>
<text text-anchor="middle" x="961.5" y="-159.5" font-family="sans" font-size="10.00">qparse_tsv_R</text>
</g>
<!-- 3&#45;&gt;13 -->
<g id="edge33" class="edge">
<title>3&#45;&gt;13</title>
<path fill="none" stroke="grey" stroke-width="2" d="M946.45,-370.82C918.13,-364.31 883.39,-351.02 865.5,-324 849.32,-299.57 880.46,-221.75 884.5,-216 892.99,-203.93 905.16,-193.75 917.33,-185.63"/>
<polygon fill="grey" stroke="grey" stroke-width="2" points="919.54,-188.38 926.14,-180.1 915.81,-182.46 919.54,-188.38"/>
</g>
<!-- 15 -->
<g id="node16" class="node">
<title>15</title>
<path fill="none" stroke="#567bd8" stroke-width="2" d="M916.5,-324C916.5,-324 886.5,-324 886.5,-324 880.5,-324 874.5,-318 874.5,-312 874.5,-312 874.5,-300 874.5,-300 874.5,-294 880.5,-288 886.5,-288 886.5,-288 916.5,-288 916.5,-288 922.5,-288 928.5,-294 928.5,-300 928.5,-300 928.5,-312 928.5,-312 928.5,-318 922.5,-324 916.5,-324"/>
<text text-anchor="middle" x="901.5" y="-303.5" font-family="sans" font-size="10.00">qparse</text>
</g>
<!-- 3&#45;&gt;15 -->
<g id="edge36" class="edge">
<title>3&#45;&gt;15</title>
<path fill="none" stroke="grey" stroke-width="2" d="M968.5,-359.7C957.29,-350.88 943.5,-340.03 931.35,-330.47"/>
<polygon fill="grey" stroke="grey" stroke-width="2" points="933.27,-327.54 923.25,-324.1 928.94,-333.04 933.27,-327.54"/>
</g>
<!-- 16 -->
<g id="node17" class="node">
<title>16</title>
<path fill="none" stroke="#566bd8" stroke-width="2" d="M1022.5,-324C1022.5,-324 958.5,-324 958.5,-324 952.5,-324 946.5,-318 946.5,-312 946.5,-312 946.5,-300 946.5,-300 946.5,-294 952.5,-288 958.5,-288 958.5,-288 1022.5,-288 1022.5,-288 1028.5,-288 1034.5,-294 1034.5,-300 1034.5,-300 1034.5,-312 1034.5,-312 1034.5,-318 1028.5,-324 1022.5,-324"/>
<text text-anchor="middle" x="990.5" y="-303.5" font-family="sans" font-size="10.00">quadron_score</text>
</g>
<!-- 3&#45;&gt;16 -->
<g id="edge37" class="edge">
<title>3&#45;&gt;16</title>
<path fill="none" stroke="grey" stroke-width="2" d="M990.5,-359.7C990.5,-351.98 990.5,-342.71 990.5,-334.11"/>
<polygon fill="grey" stroke="grey" stroke-width="2" points="994,-334.1 990.5,-324.1 987,-334.1 994,-334.1"/>
</g>
<!-- 18 -->
<g id="node19" class="node">
<title>18</title>
<path fill="none" stroke="#70d856" stroke-width="2" d="M1142.5,-324C1142.5,-324 1064.5,-324 1064.5,-324 1058.5,-324 1052.5,-318 1052.5,-312 1052.5,-312 1052.5,-300 1052.5,-300 1052.5,-294 1058.5,-288 1064.5,-288 1064.5,-288 1142.5,-288 1142.5,-288 1148.5,-288 1154.5,-294 1154.5,-300 1154.5,-300 1154.5,-312 1154.5,-312 1154.5,-318 1148.5,-324 1142.5,-324"/>
<text text-anchor="middle" x="1103.5" y="-303.5" font-family="sans" font-size="10.00">quadron_features</text>
</g>
<!-- 3&#45;&gt;18 -->
<g id="edge39" class="edge">
<title>3&#45;&gt;18</title>
<path fill="none" stroke="grey" stroke-width="2" d="M1018.14,-359.88C1032.92,-350.72 1051.29,-339.34 1067.2,-329.48"/>
<polygon fill="grey" stroke="grey" stroke-width="2" points="1069.09,-332.43 1075.75,-324.19 1065.41,-326.48 1069.09,-332.43"/>
</g>
<!-- 19 -->
<g id="node20" class="node">
<title>19</title>
<path fill="none" stroke="#56d873" stroke-width="2" d="M1222.5,-324C1222.5,-324 1184.5,-324 1184.5,-324 1178.5,-324 1172.5,-318 1172.5,-312 1172.5,-312 1172.5,-300 1172.5,-300 1172.5,-294 1178.5,-288 1184.5,-288 1184.5,-288 1222.5,-288 1222.5,-288 1228.5,-288 1234.5,-294 1234.5,-300 1234.5,-300 1234.5,-312 1234.5,-312 1234.5,-318 1228.5,-324 1222.5,-324"/>
<text text-anchor="middle" x="1203.5" y="-303.5" font-family="sans" font-size="10.00">pqsfinder</text>
</g>
<!-- 3&#45;&gt;19 -->
<g id="edge40" class="edge">
<title>3&#45;&gt;19</title>
<path fill="none" stroke="grey" stroke-width="2" d="M1034.65,-364.86C1067.73,-355.45 1114.22,-341.57 1162.77,-324.1"/>
<polygon fill="grey" stroke="grey" stroke-width="2" points="1163.98,-327.38 1172.18,-320.68 1161.59,-320.81 1163.98,-327.38"/>
</g>
<!-- 20 -->
<g id="node21" class="node">
<title>20</title>
<path fill="none" stroke="#61d856" stroke-width="2" d="M1359.5,-252C1359.5,-252 1253.5,-252 1253.5,-252 1247.5,-252 1241.5,-246 1241.5,-240 1241.5,-240 1241.5,-228 1241.5,-228 1241.5,-222 1247.5,-216 1253.5,-216 1253.5,-216 1359.5,-216 1359.5,-216 1365.5,-216 1371.5,-222 1371.5,-228 1371.5,-228 1371.5,-240 1371.5,-240 1371.5,-246 1365.5,-252 1359.5,-252"/>
<text text-anchor="middle" x="1306.5" y="-231.5" font-family="sans" font-size="10.00">quadparser_tsv_format</text>
</g>
<!-- 3&#45;&gt;20 -->
<g id="edge41" class="edge">
<title>3&#45;&gt;20</title>
<path fill="none" stroke="grey" stroke-width="2" d="M1034.78,-374.33C1133.45,-367.93 1364.51,-350.26 1387.5,-324 1398.04,-311.96 1395.11,-302.07 1387.5,-288 1380.68,-275.39 1369.41,-265.3 1357.42,-257.45"/>
<polygon fill="grey" stroke="grey" stroke-width="2" points="1358.98,-254.3 1348.61,-252.13 1355.36,-260.29 1358.98,-254.3"/>
</g>
<!-- 21 -->
<g id="node22" class="node">
<title>21</title>
<path fill="none" stroke="#56d882" stroke-width="2" d="M1366,-324C1366,-324 1265,-324 1265,-324 1259,-324 1253,-318 1253,-312 1253,-312 1253,-300 1253,-300 1253,-294 1259,-288 1265,-288 1265,-288 1366,-288 1366,-288 1372,-288 1378,-294 1378,-300 1378,-300 1378,-312 1378,-312 1378,-318 1372,-324 1366,-324"/>
<text text-anchor="middle" x="1315.5" y="-303.5" font-family="sans" font-size="10.00">quadparser_command</text>
</g>
<!-- 3&#45;&gt;21 -->
<g id="edge43" class="edge">
<title>3&#45;&gt;21</title>
<path fill="none" stroke="grey" stroke-width="2" d="M1034.9,-368.05C1083.41,-358.2 1163.65,-341.67 1242.58,-324.18"/>
<polygon fill="grey" stroke="grey" stroke-width="2" points="1243.69,-327.52 1252.69,-321.93 1242.17,-320.68 1243.69,-327.52"/>
</g>
<!-- 22 -->
<g id="node23" class="node">
<title>22</title>
<path fill="none" stroke="#d89c56" stroke-width="2" d="M1507,-252C1507,-252 1402,-252 1402,-252 1396,-252 1390,-246 1390,-240 1390,-240 1390,-228 1390,-228 1390,-222 1396,-216 1402,-216 1402,-216 1507,-216 1507,-216 1513,-216 1519,-222 1519,-228 1519,-228 1519,-240 1519,-240 1519,-246 1513,-252 1507,-252"/>
<text text-anchor="middle" x="1454.5" y="-231.5" font-family="sans" font-size="10.00">G4CatchAll_tsv_format</text>
</g>
<!-- 3&#45;&gt;22 -->
<g id="edge44" class="edge">
<title>3&#45;&gt;22</title>
<path fill="none" stroke="grey" stroke-width="2" d="M1034.75,-376.26C1128.8,-373.92 1344.87,-364.2 1404.5,-324 1426,-309.51 1439.25,-282.52 1446.67,-262.04"/>
<polygon fill="grey" stroke="grey" stroke-width="2" points="1450.07,-262.91 1449.93,-252.32 1443.43,-260.68 1450.07,-262.91"/>
</g>
<!-- 23 -->
<g id="node24" class="node">
<title>23</title>
<path fill="none" stroke="#56d0d8" stroke-width="2" d="M1532,-324C1532,-324 1485,-324 1485,-324 1479,-324 1473,-318 1473,-312 1473,-312 1473,-300 1473,-300 1473,-294 1479,-288 1485,-288 1485,-288 1532,-288 1532,-288 1538,-288 1544,-294 1544,-300 1544,-300 1544,-312 1544,-312 1544,-318 1538,-324 1532,-324"/>
<text text-anchor="middle" x="1508.5" y="-303.5" font-family="sans" font-size="10.00">G4CatchAll</text>
</g>
<!-- 3&#45;&gt;23 -->
<g id="edge46" class="edge">
<title>3&#45;&gt;23</title>
<path fill="none" stroke="grey" stroke-width="2" d="M1034.57,-375.17C1118.16,-371 1305.1,-358.34 1458.5,-324 1459.98,-323.67 1461.48,-323.31 1462.99,-322.93"/>
<polygon fill="grey" stroke="grey" stroke-width="2" points="1464.31,-326.19 1472.99,-320.11 1462.41,-319.45 1464.31,-326.19"/>
</g>
<!-- 25 -->
<g id="node26" class="node">
<title>25</title>
<path fill="none" stroke="#56b1d8" stroke-width="2" d="M657,-252C657,-252 618,-252 618,-252 612,-252 606,-246 606,-240 606,-240 606,-228 606,-228 606,-222 612,-216 618,-216 618,-216 657,-216 657,-216 663,-216 669,-222 669,-228 669,-228 669,-240 669,-240 669,-246 663,-252 657,-252"/>
<text text-anchor="middle" x="637.5" y="-231.5" font-family="sans" font-size="10.00">G4Hunter</text>
</g>
<!-- 3&#45;&gt;25 -->
<g id="edge48" class="edge">
<title>3&#45;&gt;25</title>
<path fill="none" stroke="grey" stroke-width="2" d="M946.23,-377C889.43,-375.17 789.54,-365.62 716.5,-324 689.76,-308.76 667.39,-281.13 653.36,-260.68"/>
<polygon fill="grey" stroke="grey" stroke-width="2" points="656.14,-258.53 647.69,-252.13 650.31,-262.4 656.14,-258.53"/>
</g>
<!-- 28 -->
<g id="node29" class="node">
<title>28</title>
<path fill="none" stroke="#ced856" stroke-width="2" d="M799.5,-324C799.5,-324 737.5,-324 737.5,-324 731.5,-324 725.5,-318 725.5,-312 725.5,-312 725.5,-300 725.5,-300 725.5,-294 731.5,-288 737.5,-288 737.5,-288 799.5,-288 799.5,-288 805.5,-288 811.5,-294 811.5,-300 811.5,-300 811.5,-312 811.5,-312 811.5,-318 805.5,-324 799.5,-324"/>
<text text-anchor="middle" x="768.5" y="-303.5" font-family="sans" font-size="10.00">GQRS_Mapper</text>
</g>
<!-- 3&#45;&gt;28 -->
<g id="edge51" class="edge">
<title>3&#45;&gt;28</title>
<path fill="none" stroke="grey" stroke-width="2" d="M946.37,-363.09C910.51,-351.78 859.79,-335.78 821.68,-323.77"/>
<polygon fill="grey" stroke="grey" stroke-width="2" points="822.38,-320.32 811.79,-320.65 820.27,-326.99 822.38,-320.32"/>
</g>
<!-- 4 -->
<g id="node5" class="node">
<title>4</title>
<path fill="none" stroke="#56d892" stroke-width="2" d="M144,-252C144,-252 79,-252 79,-252 73,-252 67,-246 67,-240 67,-240 67,-228 67,-228 67,-222 73,-216 79,-216 79,-216 144,-216 144,-216 150,-216 156,-222 156,-228 156,-228 156,-240 156,-240 156,-246 150,-252 144,-252"/>
<text text-anchor="middle" x="111.5" y="-231.5" font-family="sans" font-size="10.00">atac_from_bed</text>
</g>
<!-- 4&#45;&gt;2 -->
<g id="edge8" class="edge">
<title>4&#45;&gt;2</title>
<path fill="none" stroke="grey" stroke-width="2" d="M93.46,-215.7C84.44,-207.05 73.38,-196.45 63.56,-187.03"/>
<polygon fill="grey" stroke="grey" stroke-width="2" points="65.98,-184.5 56.34,-180.1 61.13,-189.55 65.98,-184.5"/>
</g>
<!-- 5 -->
<g id="node6" class="node">
<title>5</title>
<path fill="none" stroke="#56d8a9" stroke-width="2" d="M341,-180C341,-180 236,-180 236,-180 230,-180 224,-174 224,-168 224,-168 224,-156 224,-156 224,-150 230,-144 236,-144 236,-144 341,-144 341,-144 347,-144 353,-150 353,-156 353,-156 353,-168 353,-168 353,-174 347,-180 341,-180"/>
<text text-anchor="middle" x="288.5" y="-159.5" font-family="sans" font-size="10.00">G4detector_tsv_format</text>
</g>
<!-- 5&#45;&gt;1 -->
<g id="edge6" class="edge">
<title>5&#45;&gt;1</title>
<path fill="none" stroke="grey" stroke-width="2" d="M309.76,-143.7C320.59,-134.88 333.92,-124.03 345.66,-114.47"/>
<polygon fill="grey" stroke="grey" stroke-width="2" points="347.94,-117.13 353.49,-108.1 343.52,-111.7 347.94,-117.13"/>
</g>
<!-- 5&#45;&gt;12 -->
<g id="edge30" class="edge">
<title>5&#45;&gt;12</title>
<path fill="none" stroke="grey" stroke-width="2" d="M353.39,-145.66C356.46,-145.07 359.51,-144.51 362.5,-144 519.92,-117.02 709.81,-100.18 788.99,-93.85"/>
<polygon fill="grey" stroke="grey" stroke-width="2" points="789.72,-97.3 799.41,-93.03 789.17,-90.32 789.72,-97.3"/>
</g>
<!-- 6&#45;&gt;5 -->
<g id="edge11" class="edge">
<title>6&#45;&gt;5</title>
<path fill="none" stroke="grey" stroke-width="2" d="M416.09,-287.78C402.52,-277.84 385.59,-264.8 371.5,-252 349.26,-231.79 326.12,-206.57 309.94,-188.14"/>
<polygon fill="grey" stroke="grey" stroke-width="2" points="312.22,-185.44 303.02,-180.19 306.94,-190.03 312.22,-185.44"/>
</g>
<!-- 7 -->
<g id="node8" class="node">
<title>7</title>
<path fill="none" stroke="#80d856" stroke-width="2" d="M312,-252C312,-252 265,-252 265,-252 259,-252 253,-246 253,-240 253,-240 253,-228 253,-228 253,-222 259,-216 265,-216 265,-216 312,-216 312,-216 318,-216 324,-222 324,-228 324,-228 324,-240 324,-240 324,-246 318,-252 312,-252"/>
<text text-anchor="middle" x="288.5" y="-231.5" font-family="sans" font-size="10.00">G4detector</text>
</g>
<!-- 6&#45;&gt;7 -->
<g id="edge13" class="edge">
<title>6&#45;&gt;7</title>
<path fill="none" stroke="grey" stroke-width="2" d="M403.32,-287.88C382.25,-278.17 355.73,-265.96 333.49,-255.72"/>
<polygon fill="grey" stroke="grey" stroke-width="2" points="334.8,-252.47 324.25,-251.47 331.87,-258.83 334.8,-252.47"/>
</g>
<!-- 8 -->
<g id="node9" class="node">
<title>8</title>
<path fill="none" stroke="#d87d56" stroke-width="2" d="M538,-180C538,-180 383,-180 383,-180 377,-180 371,-174 371,-168 371,-168 371,-156 371,-156 371,-150 377,-144 383,-144 383,-144 538,-144 538,-144 544,-144 550,-150 550,-156 550,-156 550,-168 550,-168 550,-174 544,-180 538,-180"/>
<text text-anchor="middle" x="460.5" y="-159.5" font-family="sans" font-size="10.00">G4detector_retrained_tsv_format</text>
</g>
<!-- 6&#45;&gt;8 -->
<g id="edge15" class="edge">
<title>6&#45;&gt;8</title>
<path fill="none" stroke="grey" stroke-width="2" d="M474.34,-287.96C487.88,-279.22 502.02,-267.17 509.5,-252 516.57,-237.65 515.33,-230.9 509.5,-216 505.3,-205.28 497.81,-195.43 489.92,-187.2"/>
<polygon fill="grey" stroke="grey" stroke-width="2" points="492.26,-184.59 482.65,-180.13 487.38,-189.61 492.26,-184.59"/>
</g>
<!-- 9 -->
<g id="node10" class="node">
<title>9</title>
<path fill="none" stroke="#56d8c9" stroke-width="2" d="M488.5,-252C488.5,-252 392.5,-252 392.5,-252 386.5,-252 380.5,-246 380.5,-240 380.5,-240 380.5,-228 380.5,-228 380.5,-222 386.5,-216 392.5,-216 392.5,-216 488.5,-216 488.5,-216 494.5,-216 500.5,-222 500.5,-228 500.5,-228 500.5,-240 500.5,-240 500.5,-246 494.5,-252 488.5,-252"/>
<text text-anchor="middle" x="440.5" y="-231.5" font-family="sans" font-size="10.00">G4detector_retrained</text>
</g>
<!-- 6&#45;&gt;9 -->
<g id="edge16" class="edge">
<title>6&#45;&gt;9</title>
<path fill="none" stroke="grey" stroke-width="2" d="M440.5,-287.7C440.5,-279.98 440.5,-270.71 440.5,-262.11"/>
<polygon fill="grey" stroke="grey" stroke-width="2" points="444,-262.1 440.5,-252.1 437,-262.1 444,-262.1"/>
</g>
<!-- 10 -->
<g id="node11" class="node">
<title>10</title>
<path fill="none" stroke="#d8ac56" stroke-width="2" d="M618.5,-180C618.5,-180 580.5,-180 580.5,-180 574.5,-180 568.5,-174 568.5,-168 568.5,-168 568.5,-156 568.5,-156 568.5,-150 574.5,-144 580.5,-144 580.5,-144 618.5,-144 618.5,-144 624.5,-144 630.5,-150 630.5,-156 630.5,-156 630.5,-168 630.5,-168 630.5,-174 624.5,-180 618.5,-180"/>
<text text-anchor="middle" x="599.5" y="-159.5" font-family="sans" font-size="10.00">penguinn</text>
</g>
<!-- 6&#45;&gt;10 -->
<g id="edge17" class="edge">
<title>6&#45;&gt;10</title>
<path fill="none" stroke="grey" stroke-width="2" d="M473.25,-287.87C489.79,-278.43 509.64,-265.83 525.5,-252 547.3,-232.98 567.98,-207.21 581.91,-188.3"/>
<polygon fill="grey" stroke="grey" stroke-width="2" points="584.79,-190.29 587.81,-180.13 579.12,-186.18 584.79,-190.29"/>
</g>
<!-- 11 -->
<g id="node12" class="node">
<title>11</title>
<path fill="none" stroke="#b6d856" stroke-width="2" d="M194,-180C194,-180 107,-180 107,-180 101,-180 95,-174 95,-168 95,-168 95,-156 95,-156 95,-150 101,-144 107,-144 107,-144 194,-144 194,-144 200,-144 206,-150 206,-156 206,-156 206,-168 206,-168 206,-174 200,-180 194,-180"/>
<text text-anchor="middle" x="150.5" y="-159.5" font-family="sans" font-size="10.00">penguinn_retrained</text>
</g>
<!-- 6&#45;&gt;11 -->
<g id="edge18" class="edge">
<title>6&#45;&gt;11</title>
<path fill="none" stroke="grey" stroke-width="2" d="M399.62,-299.93C358.36,-293.48 293.85,-279.67 244.5,-252 215.21,-235.58 188.09,-208.01 170.58,-187.9"/>
<polygon fill="grey" stroke="grey" stroke-width="2" points="173.06,-185.41 163.92,-180.06 167.73,-189.94 173.06,-185.41"/>
</g>
<!-- 7&#45;&gt;5 -->
<g id="edge10" class="edge">
<title>7&#45;&gt;5</title>
<path fill="none" stroke="grey" stroke-width="2" d="M288.5,-215.7C288.5,-207.98 288.5,-198.71 288.5,-190.11"/>
<polygon fill="grey" stroke="grey" stroke-width="2" points="292,-190.1 288.5,-180.1 285,-190.1 292,-190.1"/>
</g>
<!-- 8&#45;&gt;1 -->
<g id="edge7" class="edge">
<title>8&#45;&gt;1</title>
<path fill="none" stroke="grey" stroke-width="2" d="M439.24,-143.7C428.41,-134.88 415.08,-124.03 403.34,-114.47"/>
<polygon fill="grey" stroke="grey" stroke-width="2" points="405.48,-111.7 395.51,-108.1 401.06,-117.13 405.48,-111.7"/>
</g>
<!-- 8&#45;&gt;12 -->
<g id="edge31" class="edge">
<title>8&#45;&gt;12</title>
<path fill="none" stroke="grey" stroke-width="2" d="M549.57,-143.97C626.3,-129.29 733.26,-108.83 789.13,-98.15"/>
<polygon fill="grey" stroke="grey" stroke-width="2" points="790.11,-101.52 799.28,-96.21 788.8,-94.65 790.11,-101.52"/>
</g>
<!-- 9&#45;&gt;8 -->
<g id="edge14" class="edge">
<title>9&#45;&gt;8</title>
<path fill="none" stroke="grey" stroke-width="2" d="M445.44,-215.7C447.67,-207.9 450.35,-198.51 452.83,-189.83"/>
<polygon fill="grey" stroke="grey" stroke-width="2" points="456.23,-190.68 455.61,-180.1 449.5,-188.76 456.23,-190.68"/>
</g>
<!-- 10&#45;&gt;1 -->
<g id="edge3" class="edge">
<title>10&#45;&gt;1</title>
<path fill="none" stroke="grey" stroke-width="2" d="M568.2,-147.27C565.28,-146.12 562.35,-145.01 559.5,-144 515.46,-128.4 464.32,-114.03 426.99,-104.2"/>
<polygon fill="grey" stroke="grey" stroke-width="2" points="427.4,-100.69 416.84,-101.55 425.64,-107.46 427.4,-100.69"/>
</g>
<!-- 10&#45;&gt;12 -->
<g id="edge19" class="edge">
<title>10&#45;&gt;12</title>
<path fill="none" stroke="grey" stroke-width="2" d="M630.8,-147.26C633.72,-146.11 636.65,-145 639.5,-144 690.55,-126 751.05,-109.75 789.11,-100.12"/>
<polygon fill="grey" stroke="grey" stroke-width="2" points="790.38,-103.41 799.22,-97.58 788.67,-96.62 790.38,-103.41"/>
</g>
<!-- 11&#45;&gt;1 -->
<g id="edge5" class="edge">
<title>11&#45;&gt;1</title>
<path fill="none" stroke="grey" stroke-width="2" d="M205.01,-143.97C240.88,-132.76 287.54,-118.18 322.82,-107.15"/>
<polygon fill="grey" stroke="grey" stroke-width="2" points="323.95,-110.47 332.45,-104.14 321.86,-103.78 323.95,-110.47"/>
</g>
<!-- 11&#45;&gt;12 -->
<g id="edge26" class="edge">
<title>11&#45;&gt;12</title>
<path fill="none" stroke="grey" stroke-width="2" d="M206.03,-145.82C209.22,-145.15 212.4,-144.54 215.5,-144 430.9,-106.77 693.78,-95.17 789.45,-92.03"/>
<polygon fill="grey" stroke="grey" stroke-width="2" points="789.61,-95.53 799.49,-91.71 789.39,-88.53 789.61,-95.53"/>
</g>
<!-- 12&#45;&gt;0 -->
<g id="edge1" class="edge">
<title>12&#45;&gt;0</title>
<path fill="none" stroke="grey" stroke-width="2" d="M799.48,-81.97C751.04,-69.36 649.38,-42.91 594.51,-28.63"/>
<polygon fill="grey" stroke="grey" stroke-width="2" points="595.07,-25.16 584.51,-26.03 593.3,-31.93 595.07,-25.16"/>
</g>
<!-- 13&#45;&gt;12 -->
<g id="edge20" class="edge">
<title>13&#45;&gt;12</title>
<path fill="none" stroke="grey" stroke-width="2" d="M928.48,-143.88C908.57,-133.56 883.21,-120.4 862.75,-109.8"/>
<polygon fill="grey" stroke="grey" stroke-width="2" points="864.23,-106.62 853.74,-105.12 861,-112.83 864.23,-106.62"/>
</g>
<!-- 14 -->
<g id="node15" class="node">
<title>14</title>
<path fill="none" stroke="#56d8b9" stroke-width="2" d="M990,-252C990,-252 905,-252 905,-252 899,-252 893,-246 893,-240 893,-240 893,-228 893,-228 893,-222 899,-216 905,-216 905,-216 990,-216 990,-216 996,-216 1002,-222 1002,-228 1002,-228 1002,-240 1002,-240 1002,-246 996,-252 990,-252"/>
<text text-anchor="middle" x="947.5" y="-231.5" font-family="sans" font-size="10.00">qparse_tsv_python</text>
</g>
<!-- 14&#45;&gt;13 -->
<g id="edge34" class="edge">
<title>14&#45;&gt;13</title>
<path fill="none" stroke="grey" stroke-width="2" d="M950.96,-215.7C952.5,-207.98 954.36,-198.71 956.08,-190.11"/>
<polygon fill="grey" stroke="grey" stroke-width="2" points="959.55,-190.6 958.08,-180.1 952.69,-189.22 959.55,-190.6"/>
</g>
<!-- 15&#45;&gt;14 -->
<g id="edge35" class="edge">
<title>15&#45;&gt;14</title>
<path fill="none" stroke="grey" stroke-width="2" d="M912.87,-287.7C918.22,-279.56 924.7,-269.69 930.61,-260.7"/>
<polygon fill="grey" stroke="grey" stroke-width="2" points="933.69,-262.38 936.26,-252.1 927.84,-258.54 933.69,-262.38"/>
</g>
<!-- 16&#45;&gt;12 -->
<g id="edge27" class="edge">
<title>16&#45;&gt;12</title>
<path fill="none" stroke="grey" stroke-width="2" d="M999.89,-287.95C1015.98,-256.17 1044.08,-187.22 1011.5,-144 993.75,-120.45 912.5,-104.17 863.77,-96.34"/>
<polygon fill="grey" stroke="grey" stroke-width="2" points="864.03,-92.84 853.61,-94.75 862.95,-99.76 864.03,-92.84"/>
</g>
<!-- 17 -->
<g id="node18" class="node">
<title>17</title>
<path fill="none" stroke="#568ad8" stroke-width="2" d="M1152.5,-180C1152.5,-180 1070.5,-180 1070.5,-180 1064.5,-180 1058.5,-174 1058.5,-168 1058.5,-168 1058.5,-156 1058.5,-156 1058.5,-150 1064.5,-144 1070.5,-144 1070.5,-144 1152.5,-144 1152.5,-144 1158.5,-144 1164.5,-150 1164.5,-156 1164.5,-156 1164.5,-168 1164.5,-168 1164.5,-174 1158.5,-180 1152.5,-180"/>
<text text-anchor="middle" x="1111.5" y="-159.5" font-family="sans" font-size="10.00">quadron_retrained</text>
</g>
<!-- 17&#45;&gt;12 -->
<g id="edge29" class="edge">
<title>17&#45;&gt;12</title>
<path fill="none" stroke="grey" stroke-width="2" d="M1058.48,-147.5C1053.76,-146.31 1049.04,-145.13 1044.5,-144 980.98,-128.22 906.93,-110.32 863.53,-99.88"/>
<polygon fill="grey" stroke="grey" stroke-width="2" points="864.25,-96.46 853.71,-97.52 862.62,-103.26 864.25,-96.46"/>
</g>
<!-- 18&#45;&gt;17 -->
<g id="edge38" class="edge">
<title>18&#45;&gt;17</title>
<path fill="none" stroke="grey" stroke-width="2" d="M1104.46,-287.87C1105.83,-263.67 1108.33,-219.21 1109.96,-190.39"/>
<polygon fill="grey" stroke="grey" stroke-width="2" points="1113.46,-190.37 1110.53,-180.19 1106.47,-189.98 1113.46,-190.37"/>
</g>
<!-- 19&#45;&gt;12 -->
<g id="edge24" class="edge">
<title>19&#45;&gt;12</title>
<path fill="none" stroke="grey" stroke-width="2" d="M1206.05,-287.99C1209.93,-255.04 1213.13,-182.36 1173.5,-144 1129.92,-101.82 944.3,-93.19 863.89,-91.44"/>
<polygon fill="grey" stroke="grey" stroke-width="2" points="863.79,-87.94 853.72,-91.24 863.65,-94.93 863.79,-87.94"/>
</g>
<!-- 20&#45;&gt;12 -->
<g id="edge21" class="edge">
<title>20&#45;&gt;12</title>
<path fill="none" stroke="grey" stroke-width="2" d="M1294.57,-215.94C1278.99,-195.13 1249.64,-160.7 1215.5,-144 1153.92,-113.88 948.95,-98.37 863.94,-93.11"/>
<polygon fill="grey" stroke="grey" stroke-width="2" points="863.91,-89.6 853.71,-92.49 863.48,-96.59 863.91,-89.6"/>
</g>
<!-- 21&#45;&gt;20 -->
<g id="edge42" class="edge">
<title>21&#45;&gt;20</title>
<path fill="none" stroke="grey" stroke-width="2" d="M1313.28,-287.7C1312.28,-279.98 1311.09,-270.71 1309.99,-262.11"/>
<polygon fill="grey" stroke="grey" stroke-width="2" points="1313.45,-261.58 1308.7,-252.1 1306.5,-262.47 1313.45,-261.58"/>
</g>
<!-- 22&#45;&gt;12 -->
<g id="edge32" class="edge">
<title>22&#45;&gt;12</title>
<path fill="none" stroke="grey" stroke-width="2" d="M1423.37,-215.85C1384.58,-195.29 1315.67,-161.44 1252.5,-144 1112.82,-105.43 939.57,-94.88 864.32,-92.03"/>
<polygon fill="grey" stroke="grey" stroke-width="2" points="864.07,-88.52 853.95,-91.66 863.82,-95.51 864.07,-88.52"/>
</g>
<!-- 23&#45;&gt;22 -->
<g id="edge45" class="edge">
<title>23&#45;&gt;22</title>
<path fill="none" stroke="grey" stroke-width="2" d="M1495.15,-287.7C1488.74,-279.39 1480.94,-269.28 1473.89,-260.14"/>
<polygon fill="grey" stroke="grey" stroke-width="2" points="1476.57,-257.88 1467.69,-252.1 1471.03,-262.16 1476.57,-257.88"/>
</g>
<!-- 24 -->
<g id="node25" class="node">
<title>24</title>
<path fill="none" stroke="#d8d356" stroke-width="2" d="M758.5,-180C758.5,-180 660.5,-180 660.5,-180 654.5,-180 648.5,-174 648.5,-168 648.5,-168 648.5,-156 648.5,-156 648.5,-150 654.5,-144 660.5,-144 660.5,-144 758.5,-144 758.5,-144 764.5,-144 770.5,-150 770.5,-156 770.5,-156 770.5,-168 770.5,-168 770.5,-174 764.5,-180 758.5,-180"/>
<text text-anchor="middle" x="709.5" y="-159.5" font-family="sans" font-size="10.00">G4Hunter_tsv_format</text>
</g>
<!-- 24&#45;&gt;12 -->
<g id="edge23" class="edge">
<title>24&#45;&gt;12</title>
<path fill="none" stroke="grey" stroke-width="2" d="M738.12,-143.88C753.88,-134.45 773.58,-122.66 790.39,-112.61"/>
<polygon fill="grey" stroke="grey" stroke-width="2" points="792.6,-115.36 799.38,-107.23 789,-109.36 792.6,-115.36"/>
</g>
<!-- 25&#45;&gt;24 -->
<g id="edge47" class="edge">
<title>25&#45;&gt;24</title>
<path fill="none" stroke="grey" stroke-width="2" d="M655.3,-215.7C664.1,-207.14 674.88,-196.66 684.5,-187.3"/>
<polygon fill="grey" stroke="grey" stroke-width="2" points="687.18,-189.58 691.91,-180.1 682.3,-184.57 687.18,-189.58"/>
</g>
<!-- 26 -->
<g id="node27" class="node">
<title>26</title>
<path fill="none" stroke="#a7d856" stroke-width="2" d="M852,-180C852,-180 801,-180 801,-180 795,-180 789,-174 789,-168 789,-168 789,-156 789,-156 789,-150 795,-144 801,-144 801,-144 852,-144 852,-144 858,-144 864,-150 864,-156 864,-156 864,-168 864,-168 864,-174 858,-180 852,-180"/>
<text text-anchor="middle" x="826.5" y="-159.5" font-family="sans" font-size="10.00">G4HunterRF</text>
</g>
<!-- 25&#45;&gt;26 -->
<g id="edge49" class="edge">
<title>25&#45;&gt;26</title>
<path fill="none" stroke="grey" stroke-width="2" d="M669.3,-219.27C672.07,-218.14 674.83,-217.04 677.5,-216 719.6,-199.64 732.67,-196.52 779.34,-180.03"/>
<polygon fill="grey" stroke="grey" stroke-width="2" points="780.55,-183.31 788.8,-176.67 778.2,-176.72 780.55,-183.31"/>
</g>
<!-- 26&#45;&gt;12 -->
<g id="edge28" class="edge">
<title>26&#45;&gt;12</title>
<path fill="none" stroke="grey" stroke-width="2" d="M826.5,-143.7C826.5,-135.98 826.5,-126.71 826.5,-118.11"/>
<polygon fill="grey" stroke="grey" stroke-width="2" points="830,-118.1 826.5,-108.1 823,-118.1 830,-118.1"/>
</g>
<!-- 27 -->
<g id="node28" class="node">
<title>27</title>
<path fill="none" stroke="#d85656" stroke-width="2" d="M824.5,-252C824.5,-252 698.5,-252 698.5,-252 692.5,-252 686.5,-246 686.5,-240 686.5,-240 686.5,-228 686.5,-228 686.5,-222 692.5,-216 698.5,-216 698.5,-216 824.5,-216 824.5,-216 830.5,-216 836.5,-222 836.5,-228 836.5,-228 836.5,-240 836.5,-240 836.5,-246 830.5,-252 824.5,-252"/>
<text text-anchor="middle" x="761.5" y="-231.5" font-family="sans" font-size="10.00">GQRS_Mappper_tsv_format</text>
</g>
<!-- 27&#45;&gt;12 -->
<g id="edge25" class="edge">
<title>27&#45;&gt;12</title>
<path fill="none" stroke="grey" stroke-width="2" d="M828.06,-215.94C845.85,-208.02 863.03,-196.54 873.5,-180 886.83,-158.94 870.72,-133.72 853.83,-115.52"/>
<polygon fill="grey" stroke="grey" stroke-width="2" points="856.13,-112.86 846.63,-108.18 851.14,-117.77 856.13,-112.86"/>
</g>
<!-- 28&#45;&gt;27 -->
<g id="edge50" class="edge">
<title>28&#45;&gt;27</title>
<path fill="none" stroke="grey" stroke-width="2" d="M766.77,-287.7C766,-279.98 765.07,-270.71 764.21,-262.11"/>
<polygon fill="grey" stroke="grey" stroke-width="2" points="767.69,-261.71 763.21,-252.1 760.72,-262.4 767.69,-261.71"/>
</g>
</g>
</svg>
