<?xml version="1.0" encoding="UTF-8" standalone="no"?>
<!DOCTYPE svg PUBLIC "-//W3C//DTD SVG 1.1//EN"
 "http://www.w3.org/Graphics/SVG/1.1/DTD/svg11.dtd">
<!-- Generated by graphviz version 2.40.1 (20161225.0304)
 -->
<!-- Title: snakemake_dag Pages: 1 -->
<svg width="1401pt" height="404pt"
 viewBox="0.00 0.00 1400.50 404.00" xmlns="http://www.w3.org/2000/svg" xmlns:xlink="http://www.w3.org/1999/xlink">
<g id="graph0" class="graph" transform="scale(1 1) rotate(0) translate(4 400)">
<title>snakemake_dag</title>
<polygon fill="#ffffff" stroke="transparent" points="-4,4 -4,-400 1396.5,-400 1396.5,4 -4,4"/>
<!-- 0 -->
<g id="node1" class="node">
<title>0</title>
<path fill="none" stroke="#567bd8" stroke-width="2" d="M628.5,-36C628.5,-36 598.5,-36 598.5,-36 592.5,-36 586.5,-30 586.5,-24 586.5,-24 586.5,-12 586.5,-12 586.5,-6 592.5,0 598.5,0 598.5,0 628.5,0 628.5,0 634.5,0 640.5,-6 640.5,-12 640.5,-12 640.5,-24 640.5,-24 640.5,-30 634.5,-36 628.5,-36"/>
<text text-anchor="middle" x="613.5" y="-15.5" font-family="sans" font-size="10.00" fill="#000000">all</text>
</g>
<!-- 1 -->
<g id="node2" class="node">
<title>1</title>
<path fill="none" stroke="#d8cb56" stroke-width="2" d="M584.5,-108C584.5,-108 500.5,-108 500.5,-108 494.5,-108 488.5,-102 488.5,-96 488.5,-96 488.5,-84 488.5,-84 488.5,-78 494.5,-72 500.5,-72 500.5,-72 584.5,-72 584.5,-72 590.5,-72 596.5,-78 596.5,-84 596.5,-84 596.5,-96 596.5,-96 596.5,-102 590.5,-108 584.5,-108"/>
<text text-anchor="middle" x="542.5" y="-87.5" font-family="sans" font-size="10.00" fill="#000000">other_metrics_tool</text>
</g>
<!-- 1&#45;&gt;0 -->
<g id="edge6" class="edge">
<title>1&#45;&gt;0</title>
<path fill="none" stroke="#c0c0c0" stroke-width="2" d="M560.4163,-71.8314C568.8442,-63.2848 579.041,-52.9443 588.236,-43.6198"/>
<polygon fill="#c0c0c0" stroke="#c0c0c0" stroke-width="2" points="590.8131,-45.9912 595.3425,-36.4133 585.8289,-41.0761 590.8131,-45.9912"/>
</g>
<!-- 2 -->
<g id="node3" class="node">
<title>2</title>
<path fill="none" stroke="#56d8a9" stroke-width="2" d="M922.5,-108C922.5,-108 860.5,-108 860.5,-108 854.5,-108 848.5,-102 848.5,-96 848.5,-96 848.5,-84 848.5,-84 848.5,-78 854.5,-72 860.5,-72 860.5,-72 922.5,-72 922.5,-72 928.5,-72 934.5,-78 934.5,-84 934.5,-84 934.5,-96 934.5,-96 934.5,-102 928.5,-108 922.5,-108"/>
<text text-anchor="middle" x="891.5" y="-87.5" font-family="sans" font-size="10.00" fill="#000000">auPR_DeepG4</text>
</g>
<!-- 2&#45;&gt;0 -->
<g id="edge2" class="edge">
<title>2&#45;&gt;0</title>
<path fill="none" stroke="#c0c0c0" stroke-width="2" d="M848.33,-76.0369C843.6747,-74.63 838.9972,-73.258 834.5,-72 770.2352,-54.0228 694.5355,-36.2538 650.4866,-26.2486"/>
<polygon fill="#c0c0c0" stroke="#c0c0c0" stroke-width="2" points="651.0508,-22.7879 640.525,-23.9958 649.5067,-29.6155 651.0508,-22.7879"/>
</g>
<!-- 3 -->
<g id="node4" class="node">
<title>3</title>
<path fill="none" stroke="#56d8d8" stroke-width="2" d="M760,-180C760,-180 655,-180 655,-180 649,-180 643,-174 643,-168 643,-168 643,-156 643,-156 643,-150 649,-144 655,-144 655,-144 760,-144 760,-144 766,-144 772,-150 772,-156 772,-156 772,-168 772,-168 772,-174 766,-180 760,-180"/>
<text text-anchor="middle" x="707.5" y="-159.5" font-family="sans" font-size="10.00" fill="#000000">G4detector_tsv_format</text>
</g>
<!-- 3&#45;&gt;0 -->
<g id="edge5" class="edge">
<title>3&#45;&gt;0</title>
<path fill="none" stroke="#c0c0c0" stroke-width="2" d="M732.3615,-143.6863C754.3232,-125.2236 780.4309,-96.0898 763.5,-72 750.2136,-53.0958 690.4515,-35.8802 650.4893,-26.192"/>
<polygon fill="#c0c0c0" stroke="#c0c0c0" stroke-width="2" points="651.0847,-22.7362 640.5472,-23.8369 649.4711,-29.5477 651.0847,-22.7362"/>
</g>
<!-- 3&#45;&gt;1 -->
<g id="edge16" class="edge">
<title>3&#45;&gt;1</title>
<path fill="none" stroke="#c0c0c0" stroke-width="2" d="M665.8635,-143.8314C643.7958,-134.2018 616.5093,-122.295 593.2143,-112.1299"/>
<polygon fill="#c0c0c0" stroke="#c0c0c0" stroke-width="2" points="594.4023,-108.8296 583.8371,-108.038 591.6026,-115.2454 594.4023,-108.8296"/>
</g>
<!-- 5 -->
<g id="node6" class="node">
<title>5</title>
<path fill="none" stroke="#a7d856" stroke-width="2" d="M742,-108C742,-108 627,-108 627,-108 621,-108 615,-102 615,-96 615,-96 615,-84 615,-84 615,-78 621,-72 627,-72 627,-72 742,-72 742,-72 748,-72 754,-78 754,-84 754,-84 754,-96 754,-96 754,-102 748,-108 742,-108"/>
<text text-anchor="middle" x="684.5" y="-87.5" font-family="sans" font-size="10.00" fill="#000000">other_metrics_prom_tool</text>
</g>
<!-- 3&#45;&gt;5 -->
<g id="edge25" class="edge">
<title>3&#45;&gt;5</title>
<path fill="none" stroke="#c0c0c0" stroke-width="2" d="M701.6961,-143.8314C699.2092,-136.0463 696.2469,-126.7729 693.4875,-118.1347"/>
<polygon fill="#c0c0c0" stroke="#c0c0c0" stroke-width="2" points="696.7591,-116.874 690.382,-108.4133 690.091,-119.0041 696.7591,-116.874"/>
</g>
<!-- 6 -->
<g id="node7" class="node">
<title>6</title>
<path fill="none" stroke="#56d89a" stroke-width="2" d="M336.5,-108C336.5,-108 264.5,-108 264.5,-108 258.5,-108 252.5,-102 252.5,-96 252.5,-96 252.5,-84 252.5,-84 252.5,-78 258.5,-72 264.5,-72 264.5,-72 336.5,-72 336.5,-72 342.5,-72 348.5,-78 348.5,-84 348.5,-84 348.5,-96 348.5,-96 348.5,-102 342.5,-108 336.5,-108"/>
<text text-anchor="middle" x="300.5" y="-87.5" font-family="sans" font-size="10.00" fill="#000000">auPR_prom_tool</text>
</g>
<!-- 3&#45;&gt;6 -->
<g id="edge31" class="edge">
<title>3&#45;&gt;6</title>
<path fill="none" stroke="#c0c0c0" stroke-width="2" d="M642.7036,-145.6231C639.9373,-145.0505 637.194,-144.5062 634.5,-144 512.9217,-121.1563 479.3494,-134.4299 358.5,-108 358.4002,-107.9782 358.3004,-107.9563 358.2004,-107.9343"/>
<polygon fill="#c0c0c0" stroke="#c0c0c0" stroke-width="2" points="359.2973,-104.5986 348.7551,-105.6538 357.6544,-111.4031 359.2973,-104.5986"/>
</g>
<!-- 7 -->
<g id="node8" class="node">
<title>7</title>
<path fill="none" stroke="#97d856" stroke-width="2" d="M420,-108C420,-108 379,-108 379,-108 373,-108 367,-102 367,-96 367,-96 367,-84 367,-84 367,-78 373,-72 379,-72 379,-72 420,-72 420,-72 426,-72 432,-78 432,-84 432,-84 432,-96 432,-96 432,-102 426,-108 420,-108"/>
<text text-anchor="middle" x="399.5" y="-87.5" font-family="sans" font-size="10.00" fill="#000000">auPR_tool</text>
</g>
<!-- 3&#45;&gt;7 -->
<g id="edge37" class="edge">
<title>3&#45;&gt;7</title>
<path fill="none" stroke="#c0c0c0" stroke-width="2" d="M642.6342,-145.949C639.8869,-145.2871 637.1666,-144.6351 634.5,-144 567.3479,-128.0067 489.2008,-110.2117 442.0861,-99.572"/>
<polygon fill="#c0c0c0" stroke="#c0c0c0" stroke-width="2" points="442.7579,-96.1357 432.2327,-97.349 441.2173,-102.964 442.7579,-96.1357"/>
</g>
<!-- 4 -->
<g id="node5" class="node">
<title>4</title>
<path fill="none" stroke="#c6d856" stroke-width="2" d="M1100,-108C1100,-108 965,-108 965,-108 959,-108 953,-102 953,-96 953,-96 953,-84 953,-84 953,-78 959,-72 965,-72 965,-72 1100,-72 1100,-72 1106,-72 1112,-78 1112,-84 1112,-84 1112,-96 1112,-96 1112,-102 1106,-108 1100,-108"/>
<text text-anchor="middle" x="1032.5" y="-87.5" font-family="sans" font-size="10.00" fill="#000000">other_metrics_DeepG4_prom</text>
</g>
<!-- 4&#45;&gt;0 -->
<g id="edge10" class="edge">
<title>4&#45;&gt;0</title>
<path fill="none" stroke="#c0c0c0" stroke-width="2" d="M952.952,-73.7585C949.7614,-73.1556 946.6014,-72.5672 943.5,-72 837.4223,-52.601 711.5408,-32.923 650.4444,-23.5844"/>
<polygon fill="#c0c0c0" stroke="#c0c0c0" stroke-width="2" points="650.921,-20.1167 640.5077,-22.0696 649.866,-27.0368 650.921,-20.1167"/>
</g>
<!-- 5&#45;&gt;0 -->
<g id="edge11" class="edge">
<title>5&#45;&gt;0</title>
<path fill="none" stroke="#c0c0c0" stroke-width="2" d="M666.5837,-71.8314C658.1558,-63.2848 647.959,-52.9443 638.764,-43.6198"/>
<polygon fill="#c0c0c0" stroke="#c0c0c0" stroke-width="2" points="641.1711,-41.0761 631.6575,-36.4133 636.1869,-45.9912 641.1711,-41.0761"/>
</g>
<!-- 6&#45;&gt;0 -->
<g id="edge1" class="edge">
<title>6&#45;&gt;0</title>
<path fill="none" stroke="#c0c0c0" stroke-width="2" d="M348.5087,-74.7267C351.8802,-73.7694 355.2351,-72.8504 358.5,-72 435.1566,-52.0339 526.2081,-34.1245 576.1269,-24.7945"/>
<polygon fill="#c0c0c0" stroke="#c0c0c0" stroke-width="2" points="576.9418,-28.2031 586.1347,-22.9362 575.6637,-21.3207 576.9418,-28.2031"/>
</g>
<!-- 7&#45;&gt;0 -->
<g id="edge12" class="edge">
<title>7&#45;&gt;0</title>
<path fill="none" stroke="#c0c0c0" stroke-width="2" d="M432.0334,-77.2842C436.8682,-75.4691 441.8034,-73.6574 446.5,-72 490.8992,-56.3321 542.5407,-39.9053 576.507,-29.3436"/>
<polygon fill="#c0c0c0" stroke="#c0c0c0" stroke-width="2" points="577.9374,-32.5646 586.4533,-26.2615 575.8654,-25.8783 577.9374,-32.5646"/>
</g>
<!-- 8 -->
<g id="node9" class="node">
<title>8</title>
<path fill="none" stroke="#d8a456" stroke-width="2" d="M1246.5,-108C1246.5,-108 1142.5,-108 1142.5,-108 1136.5,-108 1130.5,-102 1130.5,-96 1130.5,-96 1130.5,-84 1130.5,-84 1130.5,-78 1136.5,-72 1142.5,-72 1142.5,-72 1246.5,-72 1246.5,-72 1252.5,-72 1258.5,-78 1258.5,-84 1258.5,-84 1258.5,-96 1258.5,-96 1258.5,-102 1252.5,-108 1246.5,-108"/>
<text text-anchor="middle" x="1194.5" y="-87.5" font-family="sans" font-size="10.00" fill="#000000">other_metrics_DeepG4</text>
</g>
<!-- 8&#45;&gt;0 -->
<g id="edge14" class="edge">
<title>8&#45;&gt;0</title>
<path fill="none" stroke="#c0c0c0" stroke-width="2" d="M1130.1142,-73.6209C1127.2098,-73.0409 1124.3284,-72.4967 1121.5,-72 946.8357,-41.3291 735.1156,-25.6271 650.7759,-20.2216"/>
<polygon fill="#c0c0c0" stroke="#c0c0c0" stroke-width="2" points="650.8666,-16.7204 640.6662,-19.5841 650.4261,-23.7065 650.8666,-16.7204"/>
</g>
<!-- 9 -->
<g id="node10" class="node">
<title>9</title>
<path fill="none" stroke="#59d856" stroke-width="2" d="M1380.5,-108C1380.5,-108 1288.5,-108 1288.5,-108 1282.5,-108 1276.5,-102 1276.5,-96 1276.5,-96 1276.5,-84 1276.5,-84 1276.5,-78 1282.5,-72 1288.5,-72 1288.5,-72 1380.5,-72 1380.5,-72 1386.5,-72 1392.5,-78 1392.5,-84 1392.5,-84 1392.5,-96 1392.5,-96 1392.5,-102 1386.5,-108 1380.5,-108"/>
<text text-anchor="middle" x="1334.5" y="-87.5" font-family="sans" font-size="10.00" fill="#000000">auPR_prom_DeepG4</text>
</g>
<!-- 9&#45;&gt;0 -->
<g id="edge8" class="edge">
<title>9&#45;&gt;0</title>
<path fill="none" stroke="#c0c0c0" stroke-width="2" d="M1276.1728,-73.6669C1273.2505,-73.0571 1270.3478,-72.4959 1267.5,-72 1035.2118,-31.547 751.0714,-21.2086 650.7323,-18.7322"/>
<polygon fill="#c0c0c0" stroke="#c0c0c0" stroke-width="2" points="650.5871,-15.2279 640.5075,-18.4917 650.4224,-22.226 650.5871,-15.2279"/>
</g>
<!-- 10 -->
<g id="node11" class="node">
<title>10</title>
<path fill="none" stroke="#56d8b9" stroke-width="2" d="M613,-180C613,-180 458,-180 458,-180 452,-180 446,-174 446,-168 446,-168 446,-156 446,-156 446,-150 452,-144 458,-144 458,-144 613,-144 613,-144 619,-144 625,-150 625,-156 625,-156 625,-168 625,-168 625,-174 619,-180 613,-180"/>
<text text-anchor="middle" x="535.5" y="-159.5" font-family="sans" font-size="10.00" fill="#000000">G4detector_retrained_tsv_format</text>
</g>
<!-- 10&#45;&gt;0 -->
<g id="edge4" class="edge">
<title>10&#45;&gt;0</title>
<path fill="none" stroke="#c0c0c0" stroke-width="2" d="M508.7769,-143.9104C497.4915,-134.6439 485.574,-122.295 479.5,-108 473.243,-93.2742 470.547,-85.2606 479.5,-72 500.9361,-40.2503 544.4917,-27.164 576.1427,-21.7727"/>
<polygon fill="#c0c0c0" stroke="#c0c0c0" stroke-width="2" points="577.0079,-25.1817 586.3709,-20.2235 575.9595,-18.2606 577.0079,-25.1817"/>
</g>
<!-- 10&#45;&gt;1 -->
<g id="edge15" class="edge">
<title>10&#45;&gt;1</title>
<path fill="none" stroke="#c0c0c0" stroke-width="2" d="M537.2664,-143.8314C538.015,-136.131 538.9053,-126.9743 539.7373,-118.4166"/>
<polygon fill="#c0c0c0" stroke="#c0c0c0" stroke-width="2" points="543.2256,-118.7051 540.7098,-108.4133 536.2585,-118.0276 543.2256,-118.7051"/>
</g>
<!-- 10&#45;&gt;5 -->
<g id="edge24" class="edge">
<title>10&#45;&gt;5</title>
<path fill="none" stroke="#c0c0c0" stroke-width="2" d="M573.099,-143.8314C592.8497,-134.2874 617.2297,-122.5065 638.1417,-112.4013"/>
<polygon fill="#c0c0c0" stroke="#c0c0c0" stroke-width="2" points="639.6903,-115.5403 647.1714,-108.038 636.6447,-109.2376 639.6903,-115.5403"/>
</g>
<!-- 10&#45;&gt;6 -->
<g id="edge30" class="edge">
<title>10&#45;&gt;6</title>
<path fill="none" stroke="#c0c0c0" stroke-width="2" d="M476.0744,-143.9479C441.7088,-133.489 397.6509,-120.0472 358.5,-108 358.3992,-107.969 358.2984,-107.938 358.1974,-107.9069"/>
<polygon fill="#c0c0c0" stroke="#c0c0c0" stroke-width="2" points="359.1887,-104.55 348.6013,-104.9475 357.1257,-111.2391 359.1887,-104.55"/>
</g>
<!-- 10&#45;&gt;7 -->
<g id="edge36" class="edge">
<title>10&#45;&gt;7</title>
<path fill="none" stroke="#c0c0c0" stroke-width="2" d="M501.1815,-143.8314C482.976,-134.1932 460.4613,-122.2736 441.2493,-112.1026"/>
<polygon fill="#c0c0c0" stroke="#c0c0c0" stroke-width="2" points="442.8756,-109.0034 432.4001,-107.4177 439.6004,-115.1899 442.8756,-109.0034"/>
</g>
<!-- 11 -->
<g id="node12" class="node">
<title>11</title>
<path fill="none" stroke="#78d856" stroke-width="2" d="M81,-180C81,-180 12,-180 12,-180 6,-180 0,-174 0,-168 0,-168 0,-156 0,-156 0,-150 6,-144 12,-144 12,-144 81,-144 81,-144 87,-144 93,-150 93,-156 93,-156 93,-168 93,-168 93,-174 87,-180 81,-180"/>
<text text-anchor="middle" x="46.5" y="-159.5" font-family="sans" font-size="10.00" fill="#000000">quadron_merge</text>
</g>
<!-- 11&#45;&gt;0 -->
<g id="edge3" class="edge">
<title>11&#45;&gt;0</title>
<path fill="none" stroke="#c0c0c0" stroke-width="2" d="M70.002,-143.9209C98.6547,-122.9044 149.3566,-88.9424 198.5,-72 268.1357,-47.9928 487.7948,-28.1399 576.1509,-20.9204"/>
<polygon fill="#c0c0c0" stroke="#c0c0c0" stroke-width="2" points="576.5709,-24.398 586.2562,-20.1032 576.0066,-17.4207 576.5709,-24.398"/>
</g>
<!-- 11&#45;&gt;6 -->
<g id="edge29" class="edge">
<title>11&#45;&gt;6</title>
<path fill="none" stroke="#c0c0c0" stroke-width="2" d="M93.2024,-146.8161C96.3442,-145.8479 99.4652,-144.9011 102.5,-144 149.4174,-130.0695 202.9903,-115.5417 242.5693,-105.0681"/>
<polygon fill="#c0c0c0" stroke="#c0c0c0" stroke-width="2" points="243.5417,-108.4313 252.3176,-102.4955 241.7555,-101.663 243.5417,-108.4313"/>
</g>
<!-- 11&#45;&gt;7 -->
<g id="edge35" class="edge">
<title>11&#45;&gt;7</title>
<path fill="none" stroke="#c0c0c0" stroke-width="2" d="M93.0849,-146.3692C96.2551,-145.5089 99.4145,-144.7082 102.5,-144 210.8969,-119.1194 245.3244,-137.6932 356.8326,-107.7395"/>
<polygon fill="#c0c0c0" stroke="#c0c0c0" stroke-width="2" points="358.0737,-111.0279 366.7828,-104.9945 356.212,-104.28 358.0737,-111.0279"/>
</g>
<!-- 12 -->
<g id="node13" class="node">
<title>12</title>
<path fill="none" stroke="#68d856" stroke-width="2" d="M876.5,-180C876.5,-180 802.5,-180 802.5,-180 796.5,-180 790.5,-174 790.5,-168 790.5,-168 790.5,-156 790.5,-156 790.5,-150 796.5,-144 802.5,-144 802.5,-144 876.5,-144 876.5,-144 882.5,-144 888.5,-150 888.5,-156 888.5,-156 888.5,-168 888.5,-168 888.5,-174 882.5,-180 876.5,-180"/>
<text text-anchor="middle" x="839.5" y="-159.5" font-family="sans" font-size="10.00" fill="#000000">penguinn_merge</text>
</g>
<!-- 12&#45;&gt;0 -->
<g id="edge7" class="edge">
<title>12&#45;&gt;0</title>
<path fill="none" stroke="#c0c0c0" stroke-width="2" d="M831.8484,-143.7995C822.41,-123.4727 804.4914,-90.9454 779.5,-72 741.253,-43.0059 686.7998,-29.2192 650.8283,-22.9204"/>
<polygon fill="#c0c0c0" stroke="#c0c0c0" stroke-width="2" points="651.1842,-19.4321 640.7494,-21.2666 650.0507,-26.3397 651.1842,-19.4321"/>
</g>
<!-- 12&#45;&gt;1 -->
<g id="edge17" class="edge">
<title>12&#45;&gt;1</title>
<path fill="none" stroke="#c0c0c0" stroke-width="2" d="M790.233,-146.3498C787.2863,-145.526 784.3589,-144.7358 781.5,-144 704.5996,-124.2082 683.6582,-126.7614 606.5,-108 606.3984,-107.9753 606.2966,-107.9505 606.1948,-107.9257"/>
<polygon fill="#c0c0c0" stroke="#c0c0c0" stroke-width="2" points="607.1025,-104.5451 596.5502,-105.4939 605.391,-111.3327 607.1025,-104.5451"/>
</g>
<!-- 12&#45;&gt;5 -->
<g id="edge26" class="edge">
<title>12&#45;&gt;5</title>
<path fill="none" stroke="#c0c0c0" stroke-width="2" d="M800.387,-143.8314C779.7488,-134.2446 754.2516,-122.4008 732.4327,-112.2655"/>
<polygon fill="#c0c0c0" stroke="#c0c0c0" stroke-width="2" points="733.8756,-109.0766 723.3318,-108.038 730.9266,-115.4251 733.8756,-109.0766"/>
</g>
<!-- 12&#45;&gt;6 -->
<g id="edge32" class="edge">
<title>12&#45;&gt;6</title>
<path fill="none" stroke="#c0c0c0" stroke-width="2" d="M790.3244,-145.9457C787.3547,-145.2235 784.3973,-144.566 781.5,-144 596.3203,-107.827 543.6797,-144.173 358.5,-108 358.3998,-107.9804 358.2994,-107.9607 358.1991,-107.9409"/>
<polygon fill="#c0c0c0" stroke="#c0c0c0" stroke-width="2" points="359.2437,-104.5882 348.7207,-105.82 357.7151,-111.4193 359.2437,-104.5882"/>
</g>
<!-- 12&#45;&gt;7 -->
<g id="edge38" class="edge">
<title>12&#45;&gt;7</title>
<path fill="none" stroke="#c0c0c0" stroke-width="2" d="M790.3007,-146.0618C787.337,-145.3104 784.3874,-144.6148 781.5,-144 649.291,-115.8507 612.7244,-130.8661 479.5,-108 467.2229,-105.8928 453.9924,-103.1232 441.8944,-100.3902"/>
<polygon fill="#c0c0c0" stroke="#c0c0c0" stroke-width="2" points="442.5751,-96.9554 432.0443,-98.1185 441.0019,-103.7764 442.5751,-96.9554"/>
</g>
<!-- 13 -->
<g id="node14" class="node">
<title>13</title>
<path fill="none" stroke="#88d856" stroke-width="2" d="M415.5,-180C415.5,-180 291.5,-180 291.5,-180 285.5,-180 279.5,-174 279.5,-168 279.5,-168 279.5,-156 279.5,-156 279.5,-150 285.5,-144 291.5,-144 291.5,-144 415.5,-144 415.5,-144 421.5,-144 427.5,-150 427.5,-156 427.5,-156 427.5,-168 427.5,-168 427.5,-174 421.5,-180 415.5,-180"/>
<text text-anchor="middle" x="353.5" y="-159.5" font-family="sans" font-size="10.00" fill="#000000">penguinn_merge_retrained</text>
</g>
<!-- 13&#45;&gt;0 -->
<g id="edge13" class="edge">
<title>13&#45;&gt;0</title>
<path fill="none" stroke="#c0c0c0" stroke-width="2" d="M287.7877,-143.9626C270.4117,-135.8766 253.6817,-124.3407 243.5,-108 235.0387,-94.4204 233.0351,-84.1031 243.5,-72 265.1463,-46.9651 487.0891,-27.5495 576.4863,-20.6865"/>
<polygon fill="#c0c0c0" stroke="#c0c0c0" stroke-width="2" points="576.7541,-24.1763 586.461,-19.9308 576.2252,-17.1964 576.7541,-24.1763"/>
</g>
<!-- 13&#45;&gt;1 -->
<g id="edge19" class="edge">
<title>13&#45;&gt;1</title>
<path fill="none" stroke="#c0c0c0" stroke-width="2" d="M401.1927,-143.8314C426.8073,-134.0734 458.5602,-121.977 485.474,-111.7242"/>
<polygon fill="#c0c0c0" stroke="#c0c0c0" stroke-width="2" points="487.0514,-114.8687 495.1503,-108.038 484.5594,-108.3273 487.0514,-114.8687"/>
</g>
<!-- 13&#45;&gt;5 -->
<g id="edge28" class="edge">
<title>13&#45;&gt;5</title>
<path fill="none" stroke="#c0c0c0" stroke-width="2" d="M427.5517,-146.1377C490.7535,-132.5988 575.098,-114.5286 604.841,-108.0997"/>
<polygon fill="#c0c0c0" stroke="#c0c0c0" stroke-width="2" points="605.6967,-111.4955 614.7241,-105.9497 604.2086,-104.6555 605.6967,-111.4955"/>
</g>
<!-- 13&#45;&gt;6 -->
<g id="edge34" class="edge">
<title>13&#45;&gt;6</title>
<path fill="none" stroke="#c0c0c0" stroke-width="2" d="M340.1259,-143.8314C334.0838,-135.6232 326.8237,-125.7606 320.1779,-116.7323"/>
<polygon fill="#c0c0c0" stroke="#c0c0c0" stroke-width="2" points="322.8011,-114.3918 314.0542,-108.4133 317.1637,-118.5415 322.8011,-114.3918"/>
</g>
<!-- 13&#45;&gt;7 -->
<g id="edge40" class="edge">
<title>13&#45;&gt;7</title>
<path fill="none" stroke="#c0c0c0" stroke-width="2" d="M365.1077,-143.8314C370.2978,-135.7079 376.5232,-125.9637 382.2425,-117.0118"/>
<polygon fill="#c0c0c0" stroke="#c0c0c0" stroke-width="2" points="385.3015,-118.7246 387.736,-108.4133 379.4026,-114.9559 385.3015,-118.7246"/>
</g>
<!-- 14 -->
<g id="node15" class="node">
<title>14</title>
<path fill="none" stroke="#d88556" stroke-width="2" d="M249.5,-180C249.5,-180 123.5,-180 123.5,-180 117.5,-180 111.5,-174 111.5,-168 111.5,-168 111.5,-156 111.5,-156 111.5,-150 117.5,-144 123.5,-144 123.5,-144 249.5,-144 249.5,-144 255.5,-144 261.5,-150 261.5,-156 261.5,-156 261.5,-168 261.5,-168 261.5,-174 255.5,-180 249.5,-180"/>
<text text-anchor="middle" x="186.5" y="-159.5" font-family="sans" font-size="10.00" fill="#000000">DeepG4OH4noATAC_merge</text>
</g>
<!-- 14&#45;&gt;0 -->
<g id="edge9" class="edge">
<title>14&#45;&gt;0</title>
<path fill="none" stroke="#c0c0c0" stroke-width="2" d="M190.2564,-143.8567C195.6014,-122.9437 207.537,-89.2449 231.5,-72 286.2417,-32.6054 491.2551,-21.774 576.2361,-18.9455"/>
<polygon fill="#c0c0c0" stroke="#c0c0c0" stroke-width="2" points="576.5748,-22.4367 586.4601,-18.6249 576.3553,-15.4402 576.5748,-22.4367"/>
</g>
<!-- 14&#45;&gt;1 -->
<g id="edge18" class="edge">
<title>14&#45;&gt;1</title>
<path fill="none" stroke="#c0c0c0" stroke-width="2" d="M261.594,-145.8497C264.6011,-145.2215 267.5787,-144.6029 270.5,-144 341.5197,-129.3419 423.1301,-113.2386 478.2821,-102.4652"/>
<polygon fill="#c0c0c0" stroke="#c0c0c0" stroke-width="2" points="479.1194,-105.8679 488.2638,-100.5171 477.7785,-98.9975 479.1194,-105.8679"/>
</g>
<!-- 14&#45;&gt;5 -->
<g id="edge27" class="edge">
<title>14&#45;&gt;5</title>
<path fill="none" stroke="#c0c0c0" stroke-width="2" d="M261.533,-145.5171C264.5571,-144.981 267.5548,-144.4725 270.5,-144 415.1789,-120.7894 456.056,-132.1596 604.8423,-107.99"/>
<polygon fill="#c0c0c0" stroke="#c0c0c0" stroke-width="2" points="605.5047,-111.4281 614.8009,-106.3458 604.3643,-104.5216 605.5047,-111.4281"/>
</g>
<!-- 14&#45;&gt;6 -->
<g id="edge33" class="edge">
<title>14&#45;&gt;6</title>
<path fill="none" stroke="#c0c0c0" stroke-width="2" d="M215.267,-143.8314C229.7133,-134.7074 247.3965,-123.539 262.904,-113.7449"/>
<polygon fill="#c0c0c0" stroke="#c0c0c0" stroke-width="2" points="265.1563,-116.462 271.7422,-108.1628 261.4183,-110.5436 265.1563,-116.462"/>
</g>
<!-- 14&#45;&gt;7 -->
<g id="edge39" class="edge">
<title>14&#45;&gt;7</title>
<path fill="none" stroke="#c0c0c0" stroke-width="2" d="M248.7386,-143.9658C279.0271,-134.8124 316.0784,-123.0621 356.9822,-108.0329"/>
<polygon fill="#c0c0c0" stroke="#c0c0c0" stroke-width="2" points="358.4516,-111.2209 366.6095,-104.4608 356.0165,-104.6581 358.4516,-111.2209"/>
</g>
<!-- 15 -->
<g id="node16" class="node">
<title>15</title>
<path fill="none" stroke="#d89556" stroke-width="2" d="M1077,-180C1077,-180 988,-180 988,-180 982,-180 976,-174 976,-168 976,-168 976,-156 976,-156 976,-150 982,-144 988,-144 988,-144 1077,-144 1077,-144 1083,-144 1089,-150 1089,-156 1089,-156 1089,-168 1089,-168 1089,-174 1083,-180 1077,-180"/>
<text text-anchor="middle" x="1032.5" y="-159.5" font-family="sans" font-size="10.00" fill="#000000">DeepG4OH4_merge</text>
</g>
<!-- 15&#45;&gt;2 -->
<g id="edge20" class="edge">
<title>15&#45;&gt;2</title>
<path fill="none" stroke="#c0c0c0" stroke-width="2" d="M996.9197,-143.8314C978.4675,-134.4089 955.7455,-122.8062 936.127,-112.7883"/>
<polygon fill="#c0c0c0" stroke="#c0c0c0" stroke-width="2" points="937.5667,-109.5935 927.0689,-108.1628 934.3832,-115.8278 937.5667,-109.5935"/>
</g>
<!-- 15&#45;&gt;4 -->
<g id="edge23" class="edge">
<title>15&#45;&gt;4</title>
<path fill="none" stroke="#c0c0c0" stroke-width="2" d="M1032.5,-143.8314C1032.5,-136.131 1032.5,-126.9743 1032.5,-118.4166"/>
<polygon fill="#c0c0c0" stroke="#c0c0c0" stroke-width="2" points="1036.0001,-118.4132 1032.5,-108.4133 1029.0001,-118.4133 1036.0001,-118.4132"/>
</g>
<!-- 15&#45;&gt;8 -->
<g id="edge41" class="edge">
<title>15&#45;&gt;8</title>
<path fill="none" stroke="#c0c0c0" stroke-width="2" d="M1073.3794,-143.8314C1095.046,-134.2018 1121.8363,-122.295 1144.7078,-112.1299"/>
<polygon fill="#c0c0c0" stroke="#c0c0c0" stroke-width="2" points="1146.1979,-115.2978 1153.9145,-108.038 1143.3549,-108.9011 1146.1979,-115.2978"/>
</g>
<!-- 15&#45;&gt;9 -->
<g id="edge42" class="edge">
<title>15&#45;&gt;9</title>
<path fill="none" stroke="#c0c0c0" stroke-width="2" d="M1089.1439,-149.5939C1134.5939,-139.5004 1200.2644,-124.6058 1266.6341,-108.1754"/>
<polygon fill="#c0c0c0" stroke="#c0c0c0" stroke-width="2" points="1267.5688,-111.5496 1276.4291,-105.7405 1265.88,-104.7564 1267.5688,-111.5496"/>
</g>
<!-- 16 -->
<g id="node17" class="node">
<title>16</title>
<path fill="none" stroke="#d85656" stroke-width="2" d="M628,-324C628,-324 571,-324 571,-324 565,-324 559,-318 559,-312 559,-312 559,-300 559,-300 559,-294 565,-288 571,-288 571,-288 628,-288 628,-288 634,-288 640,-294 640,-300 640,-300 640,-312 640,-312 640,-318 634,-324 628,-324"/>
<text text-anchor="middle" x="599.5" y="-303.5" font-family="sans" font-size="10.00" fill="#000000">subseq_fasta</text>
</g>
<!-- 16&#45;&gt;3 -->
<g id="edge22" class="edge">
<title>16&#45;&gt;3</title>
<path fill="none" stroke="#c0c0c0" stroke-width="2" d="M609.9559,-287.7865C620.9463,-269.1483 639.1578,-239.6479 657.5,-216 665.0101,-206.3176 673.9106,-196.3109 682.1057,-187.5819"/>
<polygon fill="#c0c0c0" stroke="#c0c0c0" stroke-width="2" points="684.7018,-189.9312 689.0733,-180.2802 679.6375,-185.0987 684.7018,-189.9312"/>
</g>
<!-- 16&#45;&gt;10 -->
<g id="edge44" class="edge">
<title>16&#45;&gt;10</title>
<path fill="none" stroke="#c0c0c0" stroke-width="2" d="M598.2608,-287.924C596.3962,-269.1363 591.7853,-239.2792 580.5,-216 575.659,-206.014 568.579,-196.3086 561.4615,-187.9445"/>
<polygon fill="#c0c0c0" stroke="#c0c0c0" stroke-width="2" points="563.9694,-185.4982 554.6979,-180.3709 558.7484,-190.1609 563.9694,-185.4982"/>
</g>
<!-- 16&#45;&gt;12 -->
<g id="edge48" class="edge">
<title>16&#45;&gt;12</title>
<path fill="none" stroke="#c0c0c0" stroke-width="2" d="M640.0331,-298.8984C701.857,-287.694 813.9132,-265.7752 826.5,-252 841.5748,-235.5019 843.953,-209.7304 843.0667,-189.9857"/>
<polygon fill="#c0c0c0" stroke="#c0c0c0" stroke-width="2" points="846.5572,-189.7266 842.3272,-180.0128 839.5763,-190.2443 846.5572,-189.7266"/>
</g>
<!-- 16&#45;&gt;13 -->
<g id="edge50" class="edge">
<title>16&#45;&gt;13</title>
<path fill="none" stroke="#c0c0c0" stroke-width="2" d="M558.8009,-294.3112C519.1776,-282.5224 462.1453,-264.3475 442.5,-252 434.9548,-247.2577 401.2354,-212.3874 377.5429,-187.4756"/>
<polygon fill="#c0c0c0" stroke="#c0c0c0" stroke-width="2" points="379.9743,-184.9531 370.552,-180.1084 374.8965,-189.7715 379.9743,-184.9531"/>
</g>
<!-- 17 -->
<g id="node18" class="node">
<title>17</title>
<path fill="none" stroke="#d87556" stroke-width="2" d="M725,-252C725,-252 678,-252 678,-252 672,-252 666,-246 666,-240 666,-240 666,-228 666,-228 666,-222 672,-216 678,-216 678,-216 725,-216 725,-216 731,-216 737,-222 737,-228 737,-228 737,-240 737,-240 737,-246 731,-252 725,-252"/>
<text text-anchor="middle" x="701.5" y="-231.5" font-family="sans" font-size="10.00" fill="#000000">G4detector</text>
</g>
<!-- 16&#45;&gt;17 -->
<g id="edge54" class="edge">
<title>16&#45;&gt;17</title>
<path fill="none" stroke="#c0c0c0" stroke-width="2" d="M625.2389,-287.8314C638.0437,-278.7927 653.6909,-267.7476 667.4719,-258.0198"/>
<polygon fill="#c0c0c0" stroke="#c0c0c0" stroke-width="2" points="669.618,-260.7891 675.7693,-252.1628 665.5812,-255.0703 669.618,-260.7891"/>
</g>
<!-- 18 -->
<g id="node19" class="node">
<title>18</title>
<path fill="none" stroke="#d8b456" stroke-width="2" d="M559.5,-252C559.5,-252 463.5,-252 463.5,-252 457.5,-252 451.5,-246 451.5,-240 451.5,-240 451.5,-228 451.5,-228 451.5,-222 457.5,-216 463.5,-216 463.5,-216 559.5,-216 559.5,-216 565.5,-216 571.5,-222 571.5,-228 571.5,-228 571.5,-240 571.5,-240 571.5,-246 565.5,-252 559.5,-252"/>
<text text-anchor="middle" x="511.5" y="-231.5" font-family="sans" font-size="10.00" fill="#000000">G4detector_retrained</text>
</g>
<!-- 16&#45;&gt;18 -->
<g id="edge55" class="edge">
<title>16&#45;&gt;18</title>
<path fill="none" stroke="#c0c0c0" stroke-width="2" d="M577.2939,-287.8314C566.455,-278.9632 553.2556,-268.1637 541.5322,-258.5718"/>
<polygon fill="#c0c0c0" stroke="#c0c0c0" stroke-width="2" points="543.655,-255.7864 533.699,-252.1628 539.2223,-261.2041 543.655,-255.7864"/>
</g>
<!-- 21 -->
<g id="node22" class="node">
<title>21</title>
<path fill="none" stroke="#56a9d8" stroke-width="2" d="M805.5,-252C805.5,-252 767.5,-252 767.5,-252 761.5,-252 755.5,-246 755.5,-240 755.5,-240 755.5,-228 755.5,-228 755.5,-222 761.5,-216 767.5,-216 767.5,-216 805.5,-216 805.5,-216 811.5,-216 817.5,-222 817.5,-228 817.5,-228 817.5,-240 817.5,-240 817.5,-246 811.5,-252 805.5,-252"/>
<text text-anchor="middle" x="786.5" y="-231.5" font-family="sans" font-size="10.00" fill="#000000">penguinn</text>
</g>
<!-- 16&#45;&gt;21 -->
<g id="edge58" class="edge">
<title>16&#45;&gt;21</title>
<path fill="none" stroke="#c0c0c0" stroke-width="2" d="M640.0383,-291.979C667.6388,-282.2371 705.1496,-268.6178 745.8593,-252.1466"/>
<polygon fill="#c0c0c0" stroke="#c0c0c0" stroke-width="2" points="747.2084,-255.3763 755.1479,-248.361 744.5665,-248.894 747.2084,-255.3763"/>
</g>
<!-- 22 -->
<g id="node23" class="node">
<title>22</title>
<path fill="none" stroke="#d86656" stroke-width="2" d="M383,-252C383,-252 296,-252 296,-252 290,-252 284,-246 284,-240 284,-240 284,-228 284,-228 284,-222 290,-216 296,-216 296,-216 383,-216 383,-216 389,-216 395,-222 395,-228 395,-228 395,-240 395,-240 395,-246 389,-252 383,-252"/>
<text text-anchor="middle" x="339.5" y="-231.5" font-family="sans" font-size="10.00" fill="#000000">penguinn_retrained</text>
</g>
<!-- 16&#45;&gt;22 -->
<g id="edge59" class="edge">
<title>16&#45;&gt;22</title>
<path fill="none" stroke="#c0c0c0" stroke-width="2" d="M558.8505,-294.3164C551.4191,-292.2002 543.7297,-290.0236 536.5,-288 492.7681,-275.7592 443.4938,-262.2527 405.1647,-251.8096"/>
<polygon fill="#c0c0c0" stroke="#c0c0c0" stroke-width="2" points="405.7315,-248.3366 395.1632,-249.0865 403.8924,-255.0907 405.7315,-248.3366"/>
</g>
<!-- 17&#45;&gt;3 -->
<g id="edge21" class="edge">
<title>17&#45;&gt;3</title>
<path fill="none" stroke="#c0c0c0" stroke-width="2" d="M703.0141,-215.8314C703.6558,-208.131 704.4188,-198.9743 705.1319,-190.4166"/>
<polygon fill="#c0c0c0" stroke="#c0c0c0" stroke-width="2" points="708.6229,-190.6694 705.9656,-180.4133 701.6471,-190.088 708.6229,-190.6694"/>
</g>
<!-- 18&#45;&gt;10 -->
<g id="edge43" class="edge">
<title>18&#45;&gt;10</title>
<path fill="none" stroke="#c0c0c0" stroke-width="2" d="M517.5562,-215.8314C520.1512,-208.0463 523.2424,-198.7729 526.1218,-190.1347"/>
<polygon fill="#c0c0c0" stroke="#c0c0c0" stroke-width="2" points="529.5203,-191.0069 529.3622,-180.4133 522.8795,-188.7933 529.5203,-191.0069"/>
</g>
<!-- 19 -->
<g id="node20" class="node">
<title>19</title>
<path fill="none" stroke="#5663d8" stroke-width="2" d="M354.5,-324C354.5,-324 290.5,-324 290.5,-324 284.5,-324 278.5,-318 278.5,-312 278.5,-312 278.5,-300 278.5,-300 278.5,-294 284.5,-288 290.5,-288 290.5,-288 354.5,-288 354.5,-288 360.5,-288 366.5,-294 366.5,-300 366.5,-300 366.5,-312 366.5,-312 366.5,-318 360.5,-324 354.5,-324"/>
<text text-anchor="middle" x="322.5" y="-303.5" font-family="sans" font-size="10.00" fill="#000000">quadron_score</text>
</g>
<!-- 19&#45;&gt;11 -->
<g id="edge46" class="edge">
<title>19&#45;&gt;11</title>
<path fill="none" stroke="#c0c0c0" stroke-width="2" d="M287.8239,-287.9081C237.7319,-261.7732 145.1414,-213.4651 90.3631,-184.8851"/>
<polygon fill="#c0c0c0" stroke="#c0c0c0" stroke-width="2" points="91.7362,-181.6538 81.2514,-180.1311 88.4982,-187.8599 91.7362,-181.6538"/>
</g>
<!-- 20 -->
<g id="node21" class="node">
<title>20</title>
<path fill="none" stroke="#b6d856" stroke-width="2" d="M104.5,-252C104.5,-252 22.5,-252 22.5,-252 16.5,-252 10.5,-246 10.5,-240 10.5,-240 10.5,-228 10.5,-228 10.5,-222 16.5,-216 22.5,-216 22.5,-216 104.5,-216 104.5,-216 110.5,-216 116.5,-222 116.5,-228 116.5,-228 116.5,-240 116.5,-240 116.5,-246 110.5,-252 104.5,-252"/>
<text text-anchor="middle" x="63.5" y="-231.5" font-family="sans" font-size="10.00" fill="#000000">quadron_retrained</text>
</g>
<!-- 20&#45;&gt;11 -->
<g id="edge45" class="edge">
<title>20&#45;&gt;11</title>
<path fill="none" stroke="#c0c0c0" stroke-width="2" d="M59.2102,-215.8314C57.392,-208.131 55.2301,-198.9743 53.2095,-190.4166"/>
<polygon fill="#c0c0c0" stroke="#c0c0c0" stroke-width="2" points="56.5519,-189.3414 50.8476,-180.4133 49.7392,-190.95 56.5519,-189.3414"/>
</g>
<!-- 21&#45;&gt;12 -->
<g id="edge47" class="edge">
<title>21&#45;&gt;12</title>
<path fill="none" stroke="#c0c0c0" stroke-width="2" d="M799.8741,-215.8314C805.9162,-207.6232 813.1763,-197.7606 819.8221,-188.7323"/>
<polygon fill="#c0c0c0" stroke="#c0c0c0" stroke-width="2" points="822.8363,-190.5415 825.9458,-180.4133 817.1989,-186.3918 822.8363,-190.5415"/>
</g>
<!-- 22&#45;&gt;13 -->
<g id="edge49" class="edge">
<title>22&#45;&gt;13</title>
<path fill="none" stroke="#c0c0c0" stroke-width="2" d="M343.0328,-215.8314C344.5301,-208.131 346.3105,-198.9743 347.9745,-190.4166"/>
<polygon fill="#c0c0c0" stroke="#c0c0c0" stroke-width="2" points="351.4465,-190.8975 349.9196,-180.4133 344.5752,-189.5614 351.4465,-190.8975"/>
</g>
<!-- 23 -->
<g id="node24" class="node">
<title>23</title>
<path fill="none" stroke="#569ad8" stroke-width="2" d="M515,-324C515,-324 426,-324 426,-324 420,-324 414,-318 414,-312 414,-312 414,-300 414,-300 414,-294 420,-288 426,-288 426,-288 515,-288 515,-288 521,-288 527,-294 527,-300 527,-300 527,-312 527,-312 527,-318 521,-324 515,-324"/>
<text text-anchor="middle" x="470.5" y="-303.5" font-family="sans" font-size="10.00" fill="#000000">DeepG4OH4noATAC</text>
</g>
<!-- 23&#45;&gt;14 -->
<g id="edge51" class="edge">
<title>23&#45;&gt;14</title>
<path fill="none" stroke="#c0c0c0" stroke-width="2" d="M413.8839,-293.7409C365.0852,-282.5573 298.9058,-265.7318 275.5,-252 247.6804,-235.6788 222.5046,-208.4875 206.0861,-188.256"/>
<polygon fill="#c0c0c0" stroke="#c0c0c0" stroke-width="2" points="208.7666,-186.0032 199.8144,-180.3367 203.279,-190.349 208.7666,-186.0032"/>
</g>
<!-- 24 -->
<g id="node25" class="node">
<title>24</title>
<path fill="none" stroke="#568ad8" stroke-width="2" d="M939,-252C939,-252 886,-252 886,-252 880,-252 874,-246 874,-240 874,-240 874,-228 874,-228 874,-222 880,-216 886,-216 886,-216 939,-216 939,-216 945,-216 951,-222 951,-228 951,-228 951,-240 951,-240 951,-246 945,-252 939,-252"/>
<text text-anchor="middle" x="912.5" y="-231.5" font-family="sans" font-size="10.00" fill="#000000">DeepG4OH4</text>
</g>
<!-- 24&#45;&gt;15 -->
<g id="edge52" class="edge">
<title>24&#45;&gt;15</title>
<path fill="none" stroke="#c0c0c0" stroke-width="2" d="M942.7811,-215.8314C958.1298,-206.6221 976.9498,-195.3301 993.3823,-185.4706"/>
<polygon fill="#c0c0c0" stroke="#c0c0c0" stroke-width="2" points="995.4544,-188.3091 1002.2286,-180.1628 991.8529,-182.3066 995.4544,-188.3091"/>
</g>
<!-- 25 -->
<g id="node26" class="node">
<title>25</title>
<path fill="none" stroke="#56d87b" stroke-width="2" d="M569,-396C569,-396 516,-396 516,-396 510,-396 504,-390 504,-384 504,-384 504,-372 504,-372 504,-366 510,-360 516,-360 516,-360 569,-360 569,-360 575,-360 581,-366 581,-372 581,-372 581,-384 581,-384 581,-390 575,-396 569,-396"/>
<text text-anchor="middle" x="542.5" y="-375.5" font-family="sans" font-size="10.00" fill="#000000">bin_genome</text>
</g>
<!-- 25&#45;&gt;16 -->
<g id="edge53" class="edge">
<title>25&#45;&gt;16</title>
<path fill="none" stroke="#c0c0c0" stroke-width="2" d="M556.8835,-359.8314C563.4486,-351.5386 571.3507,-341.557 578.5578,-332.4533"/>
<polygon fill="#c0c0c0" stroke="#c0c0c0" stroke-width="2" points="581.4599,-334.4262 584.9228,-324.4133 575.9716,-330.0813 581.4599,-334.4262"/>
</g>
<!-- 25&#45;&gt;19 -->
<g id="edge56" class="edge">
<title>25&#45;&gt;19</title>
<path fill="none" stroke="#c0c0c0" stroke-width="2" d="M503.9272,-365.3762C468.596,-353.8132 415.9446,-336.5819 376.449,-323.656"/>
<polygon fill="#c0c0c0" stroke="#c0c0c0" stroke-width="2" points="377.3023,-320.2527 366.7097,-320.4686 375.125,-326.9055 377.3023,-320.2527"/>
</g>
<!-- 25&#45;&gt;23 -->
<g id="edge60" class="edge">
<title>25&#45;&gt;23</title>
<path fill="none" stroke="#c0c0c0" stroke-width="2" d="M524.3314,-359.8314C515.7848,-351.2848 505.4443,-340.9443 496.1198,-331.6198"/>
<polygon fill="#c0c0c0" stroke="#c0c0c0" stroke-width="2" points="498.4592,-329.0095 488.9133,-324.4133 493.5095,-333.9592 498.4592,-329.0095"/>
</g>
<!-- 25&#45;&gt;24 -->
<g id="edge62" class="edge">
<title>25&#45;&gt;24</title>
<path fill="none" stroke="#c0c0c0" stroke-width="2" d="M581.0494,-362.997C648.9815,-336.5586 789.8394,-281.7382 864.1635,-252.812"/>
<polygon fill="#c0c0c0" stroke="#c0c0c0" stroke-width="2" points="865.7099,-255.966 873.7596,-249.0774 863.171,-249.4426 865.7099,-255.966"/>
</g>
<!-- 26 -->
<g id="node27" class="node">
<title>26</title>
<path fill="none" stroke="#56d863" stroke-width="2" d="M190.5,-324C190.5,-324 112.5,-324 112.5,-324 106.5,-324 100.5,-318 100.5,-312 100.5,-312 100.5,-300 100.5,-300 100.5,-294 106.5,-288 112.5,-288 112.5,-288 190.5,-288 190.5,-288 196.5,-288 202.5,-294 202.5,-300 202.5,-300 202.5,-312 202.5,-312 202.5,-318 196.5,-324 190.5,-324"/>
<text text-anchor="middle" x="151.5" y="-303.5" font-family="sans" font-size="10.00" fill="#000000">quadron_features</text>
</g>
<!-- 25&#45;&gt;26 -->
<g id="edge63" class="edge">
<title>25&#45;&gt;26</title>
<path fill="none" stroke="#c0c0c0" stroke-width="2" d="M503.9393,-370.8993C435.9474,-358.3791 294.2436,-332.2853 212.7451,-317.2779"/>
<polygon fill="#c0c0c0" stroke="#c0c0c0" stroke-width="2" points="213.0975,-313.784 202.629,-315.4151 211.8297,-320.6682 213.0975,-313.784"/>
</g>
<!-- 27 -->
<g id="node28" class="node">
<title>27</title>
<path fill="none" stroke="#56b9d8" stroke-width="2" d="M934,-324C934,-324 817,-324 817,-324 811,-324 805,-318 805,-312 805,-312 805,-300 805,-300 805,-294 811,-288 817,-288 817,-288 934,-288 934,-288 940,-288 946,-294 946,-300 946,-300 946,-312 946,-312 946,-318 940,-324 934,-324"/>
<text text-anchor="middle" x="875.5" y="-303.5" font-family="sans" font-size="10.00" fill="#000000">fasta_atac_from_genome</text>
</g>
<!-- 25&#45;&gt;27 -->
<g id="edge65" class="edge">
<title>25&#45;&gt;27</title>
<path fill="none" stroke="#c0c0c0" stroke-width="2" d="M581.0246,-369.6703C633.0784,-358.4155 727.1548,-338.0746 794.9877,-323.4081"/>
<polygon fill="#c0c0c0" stroke="#c0c0c0" stroke-width="2" points="795.7629,-326.8214 804.7973,-321.2871 794.2835,-319.9795 795.7629,-326.8214"/>
</g>
<!-- 26&#45;&gt;20 -->
<g id="edge57" class="edge">
<title>26&#45;&gt;20</title>
<path fill="none" stroke="#c0c0c0" stroke-width="2" d="M129.2939,-287.8314C118.455,-278.9632 105.2556,-268.1637 93.5322,-258.5718"/>
<polygon fill="#c0c0c0" stroke="#c0c0c0" stroke-width="2" points="95.655,-255.7864 85.699,-252.1628 91.2223,-261.2041 95.655,-255.7864"/>
</g>
<!-- 27&#45;&gt;24 -->
<g id="edge61" class="edge">
<title>27&#45;&gt;24</title>
<path fill="none" stroke="#c0c0c0" stroke-width="2" d="M884.8367,-287.8314C888.9243,-279.8771 893.8104,-270.369 898.3309,-261.5723"/>
<polygon fill="#c0c0c0" stroke="#c0c0c0" stroke-width="2" points="901.5799,-262.9074 903.0376,-252.4133 895.3539,-259.7078 901.5799,-262.9074"/>
</g>
<!-- 28 -->
<g id="node29" class="node">
<title>28</title>
<path fill="none" stroke="#d6d856" stroke-width="2" d="M909.5,-396C909.5,-396 841.5,-396 841.5,-396 835.5,-396 829.5,-390 829.5,-384 829.5,-384 829.5,-372 829.5,-372 829.5,-366 835.5,-360 841.5,-360 841.5,-360 909.5,-360 909.5,-360 915.5,-360 921.5,-366 921.5,-372 921.5,-372 921.5,-384 921.5,-384 921.5,-390 915.5,-396 909.5,-396"/>
<text text-anchor="middle" x="875.5" y="-375.5" font-family="sans" font-size="10.00" fill="#000000">normalize_atac</text>
</g>
<!-- 28&#45;&gt;27 -->
<g id="edge64" class="edge">
<title>28&#45;&gt;27</title>
<path fill="none" stroke="#c0c0c0" stroke-width="2" d="M875.5,-359.8314C875.5,-352.131 875.5,-342.9743 875.5,-334.4166"/>
<polygon fill="#c0c0c0" stroke="#c0c0c0" stroke-width="2" points="879.0001,-334.4132 875.5,-324.4133 872.0001,-334.4133 879.0001,-334.4132"/>
</g>
</g>
</svg>
